<?xml version="1.0" encoding="utf-8"?>
<!-- Generator: Adobe Illustrator 18.1.0, SVG Export Plug-In . SVG Version: 6.00 Build 0)  -->
<svg version="1.1" id="Layer_1" xmlns="http://www.w3.org/2000/svg" xmlns:xlink="http://www.w3.org/1999/xlink" x="0px" y="0px"
	 width="1527px" height="1033px" viewBox="-6871 4649 1527 1033" enable-background="new -6871 4649 1527 1033"
	 xml:space="preserve">
<g>
	<g>
		<polygon points="-5345.2,5213 -5418.3,5255.5 -5431.1,5248.5 -5438.7,5252.9 -5458.5,5232.3 -5492.1,5254.3 -5565,5206.5 
			-5561.3,5196.2 -5581,5179.5 -5605.1,5172.3 -5607,5170.5 -5607.5,5149.8 -5609.6,5146 -5609.5,5111.5 -5611.9,5105.4 
			-5613.9,5103 -5616.1,5097.1 -5616.1,5087.5 -5613.6,5084.2 -5601.2,5080.1 -5604.3,5073.2 -5603.5,5068.7 -5602.6,5067.9 
			-5601.5,5067.6 -5598.3,5063 -5598.4,5058.2 -5609.3,5035.7 -5608.9,5033.2 -5594.1,5020.8 -5591.1,5015.1 -5585.5,5010.9 
			-5433.2,4913.8 -5487.8,4912 -5483.8,4905.8 -5514.4,4889.4 -5514.5,4914.6 -5541.3,4898.1 -5534,4888.5 -5551.2,4882.5 
			-5536.4,4877.9 -5594.2,4842.1 -5582.1,4839.6 -5600.7,4809.8 -5614.8,4830.3 -5628.3,4798.2 -5618,4796 -5638,4742.1 
			-5627.3,4748.4 -5621.9,4713.2 -5644.9,4714.7 -5707.7,4801.6 -5728.4,4805.5 -5728.4,4806 -5728,4808.3 -5728.1,4808.7 
			-5730.1,4811.1 -5730.2,4813.5 -5741.9,4825.1 -5746.8,4823.6 -5762.7,4838.1 -5784,4837.9 -5790.1,4843 -5816.4,4830.9 
			-5833.4,4839.5 -5849.2,4833.3 -5852.3,4827 -5853.7,4830.6 -5862.1,4833.1 -5869.4,4827.2 -5869.8,4823.6 -5872.4,4822.5 
			-5875.7,4814.8 -5872.8,4807.7 -5885,4820.2 -5896.7,4819.9 -5907.1,4805.7 -5915.7,4805.7 -5924.1,4781.3 -5942.7,4772.8 
			-5966.4,4711.9 -6871,4711.5 -6871,4776.3 -6861,4776.3 -6859.8,4774.3 -6857.7,4773.5 -6852,4775.3 -6832.6,4775.2 
			-6828.9,4777.1 -6826.2,4780 -6823.4,4786 -6817.6,4788.5 -6817,4789.1 -6815.9,4789.2 -6812.8,4787.7 -6792.3,4791.9 
			-6790.9,4791.1 -6786.3,4790.3 -6780.8,4793.8 -6779.1,4796.2 -6775.4,4797.2 -6770.2,4801.7 -6770.3,4807.2 -6764.9,4816.3 
			-6763.9,4816.7 -6759.5,4814.9 -6751.9,4819.7 -6742.6,4818.5 -6739.1,4821.5 -6737.6,4821.8 -6730.6,4818.8 -6709,4817.7 
			-6707.4,4817.1 -6697,4804.5 -6557.8,4740.2 -6540.8,4738.6 -6504,4755.6 -6369,4756.5 -6342.4,4736.9 -6325.5,4733.7 
			-6302.6,4738.3 -6286.9,4749.1 -6270.9,4778.3 -6257.8,4771.4 -6243.6,4770.8 -6241,4771.8 -6232.7,4780.6 -6231.3,4780.9 
			-6229,4778.8 -6228.1,4776.6 -6226.7,4775.2 -6219.1,4772.1 -6216.2,4769.1 -6209.2,4769.4 -6201.5,4773.7 -6198.5,4773.8 
			-6198,4772.9 -6193.8,4770.1 -6188.1,4775.5 -6184.1,4773.1 -6180,4772.9 -6161.9,4780.6 -6159.4,4780.7 -6141.1,4769.3 
			-6100.6,4763.2 -6097,4758.9 -6075.9,4763 -6070.9,4772.1 -6020.9,4747.7 -6016.4,4749.5 -6015.7,4748.7 -5979,4755 
			-5977.4,4757.8 -5969.7,4758.2 -5969.9,4758.7 -5969.3,4759.8 -5968,4759.6 -5965.1,4764.1 -5961.4,4761.5 -5959.2,4763 
			-5958.6,4766 -5947.6,4771.5 -5946.3,4777 -5940.9,4779.6 -5937.1,4789 -5934.5,4789 -5929.2,4817.3 -5893.8,4831.9 
			-5891.9,4837.4 -5839.3,4844.7 -5836.7,4849.1 -5834.8,4847.1 -5799.3,4886.7 -5808.3,4934 -5827,4960.6 -5900.6,4966.1 
			-5904.5,4964.2 -5906.1,4965.1 -5911.1,4977.1 -5929.9,4987.9 -5952.7,5027.1 -5957,5034.4 -5973.6,5041.8 -5989.6,5043.2 
			-6004.2,5044.4 -6016.5,5038.2 -6034.1,5029.4 -6042.9,5025 -6044,5025.1 -6044.4,5025.3 -6051.8,5035.9 -6050.5,5039.3 
			-6051.1,5042 -6054.2,5055.7 -6062.3,5061.6 -6103.8,5092.3 -6115.7,5092 -6125.7,5091.9 -6132.6,5091.7 -6161.3,5069.1 
			-6162,5069.3 -6167.8,5082.9 -6177.9,5106.8 -6184.3,5121.9 -6192.5,5126.3 -6202.5,5131.7 -6210.4,5136 -6225,5134.6 
			-6236.8,5133.4 -6244.5,5127.4 -6260.3,5114.9 -6268.2,5093.5 -6267.5,5077.8 -6272.1,5069.2 -6274.1,5067.8 -6276,5067.3 
			-6277.4,5067.8 -6303.1,5089.3 -6325.3,5093.6 -6359.4,5080.8 -6375.1,5104.3 -6393.1,5109.7 -6404.1,5105.4 -6406.3,5112.7 
			-6409.4,5110 -6410.1,5109.9 -6414.6,5112.5 -6414.7,5113.5 -6414.1,5114 -6411.3,5119.2 -6414.4,5124.2 -6416.3,5124.9 
			-6417.8,5124.7 -6419.4,5123.5 -6421.4,5119.3 -6421.4,5118.5 -6423.6,5116.3 -6440.5,5117.1 -6453.2,5122 -6483.1,5133.7 
			-6488.6,5135.9 -6499.8,5140.3 -6503.9,5141.8 -6508.6,5143.7 -6510.2,5144.3 -6514.4,5145.9 -6515,5152.8 -6515,5163.3 
			-6515,5178.7 -6515,5196.7 -6515,5208.7 -6515,5220.7 -6515,5234 -6515,5295.3 -6515,5664.4 -6515,5670 -5344,5670 -5344,5213.1 
			-5345.2,5213 		"/>
		<polygon fill="#525252" points="-5643.8,5186.5 -5645.8,5186.5 -5647,5185.6 -5652,5165.9 -5651.2,5165.2 -5646.2,5166.5 
			-5645.6,5166.2 -5645.6,5165.8 -5694.8,5084.4 -5696.8,5083.7 -5713.3,5091.9 -5716.7,5092.1 -5754.5,5071.3 -5757.2,5071 
			-5826,5090.5 -5830.1,5089.9 -5842,5083.5 -5860.1,5080.4 -5861.5,5081.1 -5922.4,5190.4 -5924.1,5191.1 -5930.1,5190.5 
			-5930.9,5191.6 -5870,5296.2 -5869.2,5296.5 -5866.5,5292.6 -5831.5,5320.9 -5754.8,5331 -5752.3,5332.4 -5660,5277.3 
			-5660,5276.6 -5661,5275.8 -5662.2,5273.2 -5643.2,5187.4 		"/>
		<polygon fill="#525252" points="-5621.4,5028.3 -5609.8,5003.2 -5688.1,4816.2 -5718.1,4840.6 -5719.1,4840.5 -5722,4838.5 
			-5729.4,4840.6 -5730.1,4841.6 -5761,4849.1 -5767.5,4877.6 -5772.2,4879.9 -5773.6,4888 -5782.8,4895 -5791.8,4913.1 
			-5791.9,4915.4 -5783.9,4931.7 -5789.3,4939 -5797.4,4965.1 -5795.5,4971.2 -5782.8,4984.2 -5774.1,4986.7 -5769.4,4992.4 
			-5769.6,4997.2 -5766.7,5000.9 -5762.8,5002 -5762.4,5001.9 -5760.6,5003.1 -5750.9,5025.2 -5748.4,5027.5 -5716.8,5026.9 
			-5716.1,5027.1 -5715.3,5029 -5709.9,5032.3 -5703.5,5030.1 -5702.5,5030.3 -5695.1,5039.2 -5672.7,5049.4 -5669.2,5049.4 
			-5641.9,5029.1 -5623,5029.2 		"/>
		<polygon fill="#525252" points="-5949.3,5115.3 -5956.6,5099.2 -5955.8,5088.1 -5955,5086.4 -5955.6,5077 -5964.1,5065.4 
			-6011.6,5045.7 -6039.3,5049.1 -6044.2,5053.1 -6046.1,5053.7 -6050.1,5058.8 -6049.9,5060 -6050.6,5062.9 -6054.8,5067.1 
			-6057.7,5068.1 -6058.9,5068 -6064.5,5071.1 -6077,5115.9 -6076.6,5116.6 -6075.3,5127.4 -6071.1,5133 -6073.1,5144.7 
			-6069.4,5151.5 -6067.2,5152.3 -6062.7,5152 -6045,5161.4 -6029.9,5176.3 -6019,5178.2 -5986.6,5164.6 -5983.2,5165.8 
			-5979.4,5165.2 -5961.1,5152.8 -5955.5,5151.4 -5948.5,5139.2 -5947.9,5130.6 -5950.1,5123.5 		"/>
		<polygon fill="#525252" points="-5505.1,5269.5 -5582.6,5256.5 -5600.1,5271.3 -5601.2,5271.5 -5605.8,5273.7 -5610.8,5281.8 
			-5611.1,5287.4 -5620.5,5291.5 -5625.3,5300.6 -5622.7,5309.3 -5623.9,5311.1 -5631.7,5313.5 -5632.5,5314.4 -5634.1,5323.2 
			-5629,5332.4 -5630.2,5338 -5630.6,5338.6 -5632.9,5345.7 -5630.5,5352.3 -5628,5355.3 -5625.2,5363.9 -5621.3,5369 
			-5620.3,5375.5 -5605.9,5384.3 -5604.2,5384.6 -5599.5,5393.2 -5589.9,5397 -5582.4,5394.9 -5522.4,5397.9 -5473.3,5344.3 
			-5505.1,5269.5 		"/>
		<polygon points="-5394.2,4881.1 -5424.4,4895.2 -5417.2,4904.2 -5392.6,4889.2 -5394.2,4881.1 		"/>
		<polygon points="-5381.5,4882.5 -5392.6,4889.2 -5391.6,4893.9 -5381.5,4882.5 		"/>
		<polygon fill="#525252" points="-5948.5,5139.2 -5955.5,5151.4 -5961.1,5152.8 -5979.4,5165.2 -5983.2,5165.8 -5986.6,5164.6 
			-6019,5178.2 -6029.9,5176.3 -6045,5161.4 -6062.7,5152 -6067.2,5152.3 -6069.4,5151.5 -6073.1,5144.7 -6071.1,5133 
			-6075.3,5127.4 -6076.6,5116.6 -6077,5115.9 -6065.8,5075.6 -6064.5,5071.1 -6058.9,5068 -6057.7,5068.1 -6054.8,5067.1 
			-6050.6,5062.9 -6049.9,5060 -6050.1,5058.8 -6046.1,5053.7 -6044.2,5053.1 -6039.3,5049.1 -6011.6,5045.7 -5964.1,5065.4 
			-5955.6,5077 -5955,5086.4 -5955.8,5088.1 -5956.6,5099.2 -5949.3,5115.3 -5950.1,5123.5 -5947.9,5130.6 		"/>
		<polygon fill="#525252" points="-5661,5275.8 -5660,5276.6 -5660,5277.3 -5752.3,5332.4 -5754.8,5331 -5831.5,5320.9 
			-5866.5,5292.6 -5869.2,5296.5 -5870,5296.2 -5930.9,5191.6 -5930.1,5190.5 -5924.1,5191.1 -5922.4,5190.4 -5861.5,5081.1 
			-5860.1,5080.4 -5842,5083.5 -5830.1,5089.9 -5826,5090.5 -5757.2,5071 -5754.5,5071.3 -5716.7,5092.1 -5713.3,5091.9 
			-5696.8,5083.7 -5694.8,5084.4 -5645.6,5165.8 -5645.6,5166.2 -5646.2,5166.5 -5651.2,5165.2 -5652,5165.9 -5647,5185.6 
			-5645.8,5186.5 -5643.8,5186.5 -5643.2,5187.4 -5662.2,5273.2 		"/>
		<polygon fill="#525252" points="-5669.2,5049.4 -5672.7,5049.4 -5695.1,5039.2 -5702.5,5030.3 -5703.5,5030.1 -5709.9,5032.3 
			-5715.3,5029 -5716.1,5027.1 -5716.8,5026.9 -5748.4,5027.5 -5750.9,5025.2 -5760.6,5003.1 -5762.4,5001.9 -5762.8,5002 
			-5766.7,5000.9 -5769.6,4997.2 -5769.4,4992.4 -5774.1,4986.7 -5782.8,4984.2 -5795.5,4971.2 -5797.4,4965.1 -5789.3,4939 
			-5783.9,4931.7 -5791.9,4915.4 -5791.8,4913.1 -5782.8,4895 -5773.6,4888 -5772.2,4879.9 -5767.5,4877.6 -5761,4849.1 
			-5730.1,4841.6 -5729.4,4840.6 -5722,4838.5 -5719.1,4840.5 -5718.1,4840.6 -5688.1,4816.2 -5609.8,5003.2 -5621.4,5028.3 
			-5623,5029.2 -5641.9,5029.1 		"/>
		<polygon fill="#525252" points="-5473.3,5344.3 -5549.3,5405 -5582.4,5394.9 -5589.9,5397 -5599.5,5393.2 -5604.2,5384.6 
			-5605.9,5384.3 -5620.3,5375.5 -5621.3,5369 -5625.2,5363.9 -5628,5355.3 -5630.5,5352.3 -5632.9,5345.7 -5630.6,5338.6 
			-5630.2,5338 -5629,5332.4 -5634.1,5323.2 -5632.5,5314.4 -5631.7,5313.5 -5623.9,5311.1 -5622.7,5309.3 -5625.3,5300.6 
			-5620.5,5291.5 -5611.1,5287.4 -5610.8,5281.8 -5605.8,5273.7 -5601.2,5271.5 -5600.1,5271.3 -5582.6,5256.5 -5524.6,5255.1 
			-5473.3,5344.3 		"/>
		<polygon points="-5417.2,4904.2 -5433.2,4913.8 -5408.8,4914.6 -5417.2,4904.2 		"/>
		<polygon points="-5623.8,4675.9 -5623.4,4684.9 -5620.1,4680.3 		"/>
		<polygon points="-5633.5,4685.7 -5645.2,4714.7 -5644.9,4714.7 -5627.1,4690 		"/>
		<polygon points="-5605.5,4660.1 -5620.1,4680.3 -5613.2,4688.1 		"/>
		<polygon points="-5623.4,4684.9 -5627.1,4690 -5623,4692.8 		"/>
	</g>
	<polygon points="-6794.2,5273.4 -6795.2,5273 -6801.5,5275.7 -6807.5,5278.3 -6814,5281.1 -6837.5,5291.2 -6848.4,5291 
		-6861.7,5290.7 -6866.8,5290.5 -6867.6,5288 -6868.3,5289.5 -6870.2,5290.6 -6871,5290.7 -6871,5669 -6794.2,5669 -6794,5663.4 
		-6794,5613.3 -6794,5461.3 -6794,5434.7 -6794,5342 -6794,5322.7 -6794,5308.7 -6794,5294.7 -6794,5281 	"/>
	<polygon points="-5836.7,4849.1 -5836.9,4849.2 -5836.7,4849.1 -5836.7,4849.1 	"/>
	<path d="M-5623,4692.8l-0.1-0.1L-5623,4692.8z"/>
	<polygon fill="#525252" points="-6074.7,5110.9 -6074.6,5111.2 -6074.8,5111.1 	"/>
</g>
<g>
	<polygon fill="#525252" stroke="#000000" stroke-linecap="round" stroke-linejoin="round" points="-5924.8,5203.1 -5917,5216.6 
		-5909.3,5229.9 -5901.5,5243.3 -5893.7,5256.7 -5885.9,5270.1 -5878.1,5283.5 -5870.4,5296.9 -5867.6,5291.6 -5850.6,5305.1 
		-5833.6,5318.6 -5832.6,5320.5 -5814.4,5322.9 -5796.1,5325.4 -5777.8,5327.9 -5759.6,5330.3 -5757.4,5329.7 -5753.2,5332.2 
		-5747.2,5328.7 -5729.6,5318.1 -5718,5311.2 -5706.4,5304.3 -5694.8,5297.3 -5683.2,5290.3 -5671.5,5283.4 -5659.9,5276.4 
		-5663.4,5274.4 -5660.9,5263.3 -5658.5,5252.2 -5656,5241.1 -5653.5,5230 -5651,5218.9 -5648.6,5207.8 -5646.1,5196.7 
		-5643.6,5185.6 -5647.7,5186.1 -5650.5,5175.1 -5653.3,5164.1 -5645.5,5166.7 -5651.9,5156.1 -5658.3,5145.6 -5664.6,5135.1 
		-5671,5124.5 -5677.4,5114 -5683.7,5103.5 -5690.1,5093 -5696.4,5082.5 -5716,5092.2 -5728.4,5086.7 -5742.5,5078.3 -5756.7,5070 
		-5774.8,5075.1 -5792.9,5080.2 -5811,5085.3 -5829.1,5090.4 -5840.9,5083.3 -5862.1,5079.7 -5869.8,5093.6 -5877.5,5107.5 
		-5885.3,5121.4 -5893,5135.3 -5900.7,5149.2 -5908.4,5163 -5916.1,5176.9 -5923.8,5190.7 -5932.7,5189.5 	"/>
</g>
<polygon points="-6514.6,5681 -6514.6,5650 -6514.6,5610.6 -6514.6,5580.7 -6514.6,5572.7 -6514.6,5562.7 -6514.6,5548.7 
	-6514.6,5542 -6514.6,5526.7 -6514.6,5413.2 -6514.6,5406 -6514.6,5399.3 -6514.6,5388 -6514.6,5382 -6514.6,5374 -6514.6,5366.7 
	-6514.6,5334.2 -6514.6,5283.3 -6514.6,5272 -6514.6,5264 -6514.6,5234 -6514.6,5215.8 -6514.6,5176.3 -6514.6,5170.7 -6514.6,5162 
	-6514.6,5158.7 -6514.6,5152.8 -6514.6,5136.8 -6514.6,5097.4 -6794.2,5097.4 -6794.2,5136.8 -6794.2,5176.3 -6794.2,5215.8 
	-6794.2,5255.3 -6794.2,5294.7 -6794.2,5334.2 -6794.2,5373.7 -6794.2,5413.2 -6794.2,5452.7 -6794.2,5610.6 -6794.2,5650 
	-6794.2,5681 "/>
<polygon points="-6409,5480 -6332.9,5198.8 -6471.6,5275.3 -6496.4,5224.3 -6444.6,5242.3 -6414.6,5188.3 -6345.6,5158.3 
	-6309,5180 -6267,5178 -6232,5175 -6197,5172 -6180,5158 -6163,5144 -6151,5136 -6139,5128 -6119,5155 -6099,5182 -6089,5192 
	-6079,5202 -6046,5200 -6013,5198 -5997,5198 -5981,5198 -5969,5232 -5957,5266 -5959,5289 -5961,5312 -5929,5335 -5897,5358 
	-5873,5365 -5849,5372 -5803,5372 -5757,5372 -5728,5362 -5699,5352 -5688,5369 -5677,5386 -5660,5415 -5643,5444 -5599,5448 
	-5555,5452 -5427,5454 -5479,5538 -5559,5529 -5639,5520 -5692,5473 -5745,5426 -5798,5437 -5851,5448 -5909,5428 -5967,5408 
	-6006,5357 -6002.9,5258.1 -6040.4,5246.1 -6083,5262 -6119.9,5300.1 -6158.2,5342.8 -6218.2,5327.8 -6240.7,5244.6 -6284.2,5221.3 
	-6309.6,5199.6 -6179.9,5242.3 -6128.9,5210.1 -6459.6,5303.1 -6095.9,5658.6 -6190.4,5657.8 -6244.4,5656.3 -6274.4,5657.8 
	-6323.1,5657.8 -6385.4,5654.1 -6433,5628 -6455,5562 -6477,5496 -6468,5404 -6470.9,5329.3 -6434,5396 -6409,5480 -6409,5480 "/>
<polygon fill="none" stroke="#C62466" stroke-width="8" stroke-miterlimit="10" points="-5724.5,4827 -5747.5,4834.5 -5774,4859 
	-5982,4724 -6032,4719 -6871,4644.1 -6871,4730 -6860,4730 -6858.7,4727.4 -6828.9,4728.6 -6821.9,4735 -6818.8,4742.9 
	-6810.6,4747.2 -6807.2,4745.2 -6778.2,4748.6 -6760.6,4763.7 -6760.7,4771 -6754.7,4783.1 -6753.6,4783.6 -6748.8,4781.2 
	-6740.5,4787.6 -6730.3,4786 -6726.5,4790 -6563,4722.5 -6391.5,4733.5 -6339.5,4719 -6301,4722.5 -6273,4740 -6251.6,4725.6 
	-6239.6,4738.6 -6238.1,4739 -6221.5,4723.4 -6201.6,4728.4 -6197,4724.7 -6190.7,4731.9 -6186.4,4728.7 -6159.3,4738.7 
	-6126,4745.5 -6091.5,4736 -6078.5,4737 -6060,4747.5 -5977,4738 -5928,4788.5 -5913,4816.5 -5879,4827 -5784.5,4863 -5872,4989.5 
	-5908,5005 -5931.5,5046 -5971.5,5054 -6025,5041 -6040,5035.5 -6056,5062.5 -6072.5,5072 -6086,5094 -6084.5,5125 -6129.5,5126.5 
	-6146,5115 -6156,5127.5 -6155,5180.5 -6192,5214.5 -6246,5207.5 -6275.6,5195.9 -6290.7,5133.5 -6292.8,5132.8 -6310,5147.5 
	-6345.5,5124.5 -6394,5155 -6410,5154 -6428,5165 -6446.5,5172 -6454.5,5197.8 -6508.5,5185 "/>
</svg>
