<?xml version="1.0" encoding="utf-8"?>
<!-- Generator: Adobe Illustrator 18.1.0, SVG Export Plug-In . SVG Version: 6.00 Build 0)  -->
<svg version="1.1" id="glowShapes" xmlns="http://www.w3.org/2000/svg" xmlns:xlink="http://www.w3.org/1999/xlink" x="0px" y="0px"
	 width="7680px" height="1080px" viewBox="0 0 7680 1080" enable-background="new 0 0 7680 1080" xml:space="preserve">
<path fill="#CECCCC" stroke="#FFFFFF" stroke-miterlimit="10" d="M1713.3,375.8l10.7,5c0,0,10.1,3.1,15.6-4
	c5.5-7.2,3.6-10.2-0.5-15.6c-4.1-5.4-14.3-12.6-14.3-12.6s1.3-2,6.4-11.6c5.1-9.6,2.7-14,1.5-15.6c-1.1-1.6-4.1-3.8-4.1-3.8
	c-10.2-6.4-18.9,3.8-18.9,3.8s-4.1,3.6-5.4,5.9c-1.3,2.2-1.5,1-1.5,1c-2.3-4.1-12.3-7.4-12.3-7.4l-6.4-0.8c0,0-3.6-6.6-6.1-9.1
	c-2.6-2.5-9.2-4.8-9.2-4.8l2.6-3.8c0,0,3.6-7,4.1-11.1s-1.4-11.2-8.5-14.1s-10.5,1.6-13.1,3.3c-2.6,1.7-12.3,14.1-12.3,14.1
	l-8.5-5.5c0,0-8.2-4.6-14.8-4.3c-6.6,0.3-10.2,10.9-10.2,10.9c-0.9,10.5,13.6,20.2,13.6,20.2s-3.7,2.9-5.9,6.4
	c-2.2,3.4-2.9,11.9-2.9,11.9s-3.1,1.9-6.9,4.3s-5.7,7.2-6.1,8.1c-0.4,0.9-1,3.3-1,3.3l-2-1.8l-6.9-3.3c0,0-6.4-2-9.5-2
	c-3.1,0-7.2,2.4-9.5,5.3c-2.3,2.9-2.6,9.1-2.6,9.1l2.3,3.5c3.9,6.7,15.8,15.4,15.8,15.4c-7,9-9,18.2-9,18.2s-2.5,7.9,3.6,11.9
	c6,4,9.2,4.3,14.3,2s12.8-12.1,12.8-12.1c2.9,4.3,11.9,8.4,14.8,8.4c3,0,4.1,0.8,4.1,0.8c7.2,11.6,15.3,13.4,15.3,13.4
	s-1,1.5-5.1,8.9c-4.1,7.4,0,14.9,0,14.9s6.4,8.1,12.3,6.6c5.8-1.5,16.1-13.9,16.1-13.9l3.6-5c0,0,8.5,6.6,17.9,9.1
	c9.4,2.5,12.1-2.3,12.1-2.3s5.4-7.2,3.4-13.1c-2-6-13.6-14.6-13.6-14.6s3.6-2.6,6.4-7.1s2.6-11.4,2.6-11.4s3.9-2,8-5
	c4.1-3,5-7.2,5.4-8.9C1711.8,374.8,1713.3,375.8,1713.3,375.8z M1622.7,377.7c-4.3,2.5-6.4,3.4-6.4,3.4s-2.7,0.8-5.1-1.4
	c0,0-0.6,10.9-10.6,12.1c0,0-8.4-1-9-10.6c0,0,0.1-2.6,1.5-7c0,0-5.8-5.1-4.6-11.2c1.2-6.1,4-7.4,5.6-7.9c1.6-0.4,5.3-0.1,7.2,1
	c1.8,1.1,6.2,2.8,6.9,7.1c0,0,0.8-3.4,2.7-3.4c1.8,0,5.9-0.3,9.1,0.9c3.2,1.2,6.7,3.1,7.2,6.9C1627.5,371.4,1627,375.2,1622.7,377.7
	z M1627.1,311.6c-3.9-6.2,2-10.3,5.5-12.1c3.5-1.8,10.8,1,10.8,1c2.6-3.3,6.9-4.6,6.9-4.6c10.9-2.1,12.6,6.6,12.6,6.6
	c0.6,9.5-8.2,12.6-8.2,12.6c3,0.6,3.1,2.9,3.2,4s0.2,3.4,0,5.3c-0.2,1.8-1.1,4.4-2,6.2c-0.9,1.7-5.4,3.5-5.4,3.5
	c-11.1,1.1-13.6-11.4-14.2-12.7s1.9-2.8,2.1-3.3C1638.5,318.1,1630.9,317.7,1627.1,311.6z M1635.2,366.6l0.3-0.9l8.6-1.6l1.5-8.7
	l7.1-4.8l-1-8l0.4-1.3l1.1,2.3l1,6.9l8.2,1.3l5,7l9.3-0.8l0.1,0.6c0,0-9.1,1.2-9.1,1.5c0,0.3-1.4,9-1.4,9l-6.7,4.3l0.9,9.2l-0.8-0.1
	l-1.9-8.7l-8.5-1l-4.4-7.6L1635.2,366.6z M1684.8,420.1c-1,1.8-4.9,4.1-8,5c-3.1,0.9-8.8-1.5-8.8-1.5c-2.5,4.4-8.1,5-8.1,5
	c-11.6-0.6-11.2-6.7-11.2-6.7c-0.9-9.5,9-12.7,9-12.7c-4.9-1-4-4.8-4-4.8c-0.1-13.3,7.5-14,7.5-14c7.1-1.3,11,5.1,12.9,10
	c1.9,4.8-2.3,6-2.3,6c4.8-1.1,10.2,2.4,12.6,5.3C1686.6,414.4,1685.9,418.3,1684.8,420.1z M1703.4,362.2c-1.1,3.9-9.8,1.6-9.8,1.6
	c-8.3-0.4-9.2-7.4-9.2-7.4c-1.1-8.4,5.7-10.1,9.6-12.4c3.9-2.3,6.6,2,6.6,2c-0.6-1.6,0.4-4.9,0.4-4.9s1.4-5.3,6.9-8.2
	s10.1,3.8,11.6,7c1.5,3.1-1.1,9.9-1.1,9.9c3.4,3.1,4.6,7.4,4.6,7.4s1.6,9.6-5.9,12.1C1709.7,371.8,1703.4,362.2,1703.4,362.2z"/>
<g>
	<path fill="#010202" d="M1621.7,434.4c-1.9-5.1-5.7-6.1-5.7-6.1c-4.7-5.3-8-3.5-8-3.5c-5.7,3.8-2.1,12.9-2.1,12.9
		c-0.8-1.6-3.6-3.1-3.6-3.1s-1.6-0.9-2.6-1.3c-0.9-0.4-5-0.1-5-0.1s4.9-2.6,6.1-3.9c1.3-1.3,3.3-4.9,2.5-7.5
		c-0.8-2.5-5.4-2.5-5.4-2.5l-3-0.3c-0.6-1.1-3.4-2-8.3-0.1c-4.9,1.9-5.2,5.5-5.2,5.5s-2.3,2-3.4,3.3s-0.6,4-0.6,4
		c1,2.3,6.9,3.8,8.5,3.6c1.4-0.2,4.9-0.8,4.9-0.8c-0.8,0.6-3.3,3.8-3.9,4.6c-0.6,0.8-1.3,5-1.3,5s-1.6-3.3-2-3.9
		c-0.4-0.6-1.8-1.5-4.4-3s-3.7-0.9-5.4,0.6c-1.6,1.6-1.8,5.3-1.8,6.4c0,1-0.9,1-0.9,1l-0.6,1.9c0,0,19.3,1,33.8,1.4l0.9-1.3
		c0,0,1.4-2.1,1.6-2.8c0.3-0.7,0.1-2.9,0.1-2.9s2.1,4.2,2.9,5c0.2,0.3,0.6,1.1,0.9,2c5.5,0.1,9.3-0.1,9.4-0.5
		c0.3-1.6,0.6-6.2,0.6-6.2S1623.7,439.7,1621.7,434.4z"/>
</g>
<path fill="#010202" d="M1572.9,329.2c3.3-0.9,6.8-3.1,6.8-3.1l1.5-1.5l0.1-1.8c0,0,5-2,5.6-3.9c0.6-1.9,0.6-5.6-0.4-6.9
	c-1-1.4-1.8-3.1-1.8-3.1s1.9,0.3,4.5-1c2.6-1.3,4.1-3.4,4.1-3.4s0.6-3.5,0.5-4.5c-0.1-1-0.9-2.8-0.9-2.8s0.8-0.7,1-1.5
	c0.3-0.8,0.2-3.4-0.1-5.3c-0.3-1.8-2.6-5.7-2.9-6c-0.3-0.3-2.4-1.9-3.3-1.6c0,0-2.5-4.9-5.1-5.8c-2.6-0.9-5.5,0.4-5.5,0.4l-3.4,2.3
	c0,0-0.6-3.8-1.3-5.3c-0.7-1.4-2.9-3.4-2.9-3.4s-2.8-1.1-5.1-0.6c-2.4,0.4-2.4,0.4-2.4,0.4l-1.1-0.6c0,0-1.5-1.4-7.5,0.3
	c0,0-4.6,3-5,3.8c-0.4,0.8-0.9,1.4-0.6,1.9c0,0-2.6,1.1-3,1.6c-0.4,0.5-3.6,2.7-3.3,5.4c0.3,2.7,1.4,5.5,2.8,6.8
	c0,0-0.3,0.6-1.4,0.8c-1.1,0.2-5-0.1-7.3,4.9c0,0-1.2,3.4,0,6.2l0.1,0.6c0,0-2.4,0.4-0.3,7.4c0,0,2.2,7,5.5,6.2c0,0,3.3,5.4,4.5,5.8
	c1.2,0.4,5.3,0,5.3,0s3.2-1.6,3.8-2c0.6-0.4,0.9-0.7,1,0.3c0.1,0.9,0.9,4.6,1.9,5.9c1,1.3,3.1,2.6,3.1,2.6l4.4-0.1l2.1-0.6
	C1567.1,328.1,1569.5,330.1,1572.9,329.2z"/>
<path fill="#808081" d="M1865.1,180.9c3-3.3,1.8-3.3,1.8-3.3l9.7-2.3c0,0,4-1.1,7.5-4.8c3.5-3.7,4.2-5.5,4.6-7.9
	c0,0,11.8,3.9,19.7,4.8c8,0.9,21.8,2.6,30.4-18.5c0,0,3.2-15.5-7.7-25.2c0,0-8.7-5.3-18.2-7.6s-11.5-2-12.8-1.8c0,0,1.1-4,0.5-6.6
	s-0.4-4.3-3.4-8.4s-9.5-8.1-9.5-8.1s-0.8-10.5-4.6-14.1c-3.8-3.6-6.6-6.2-10.5-6.4c0,0,6.7-13.6,5.9-27.7
	c-0.8-14.1-12.3-19.1-19.9-21.7l-7.7-0.8c0,0-15.7,0.8-20.9,13.9s-5.7,18-5.7,18l-0.5,7.1c0,0-8.6-2-14.8,3s-8,9.4-8,9.4
	s-10-0.3-14.6,4c-4.6,4.3-5.7,9.4-6.4,10.4c-0.7,1-2-0.8-2-0.8s-3.4-2.5-18.7-4.3c-15.3-1.8-25.3,5.9-28.9,19.2
	c-3.6,13.3,5.5,25.7,14.1,28.8c8.6,3,12.8,3.8,12.8,3.8s5,1.5,6.4,1.5c1.4,0,4.9,0,4.9,0s-0.8,6.1-0.5,6.9c0.3,0.8,2.5,7.6,4.1,9.1
	c1.6,1.5,8.2,6.9,8.2,6.9s1.9,12,4.1,13.9c2.1,1.9,6,6,10.7,6.4c0,0-5.1,15.5-5.1,24s3.1,21,19.7,26c0,0,19.4,3.4,27.6-11.1
	l5.4-14.4l1.8-5.9v-7.1c0,0,5.7,1.6,9.2,0.3C1857.3,188.1,1862.1,184.1,1865.1,180.9z M1852.3,143.5c-2.3,1.1-3.6,0.4-4.4-0.3
	c-0.8-0.7-3.1-3.8-3.1-3.8l-1.5-0.3l-0.5,1.5c0,0,1,1.9,2,4.3c1,2.4-1,3.8-1,3.8s-5.7,5.1-10,8.1c-1,0.7-1.8,1.2-2.6,1.6
	c1.4,0.8,3,1.9,4.1,2.9c3,2.9,8.2,8.9,8.2,8.9s2.7,6,2.6,8.4c-0.1,2.4-2.1,3.9-5.4,5.5s-8.7,3.8-8.7,3.8s-5.4-0.6-5.9-1.8
	c-0.5-1.2-1-2-1-2s-1.1,2.3-3.6,2c-2.5-0.3-4.9-1-4.9-1l-1.5-3.5c0,0-1.9,3.1-5.1,1.5c-3.2-1.6-10.2-9.9-10.2-9.9s-2.5-5.7,2.3-8.9
	c4.8-3.2,14.3-7.9,14.3-7.9s2.2-0.5,4.9-0.7c-0.8-1.2-1.5-2.7-2-3.8c-1.3-2.6-4.4-12.4-4.4-13.1c0-0.7,4.6-3.8,4.6-3.8v-2.5
	c0,0-3.1,0.8-4.1,1.8c-1,1-3.4,0.8-3.4,0.8s-6.9-6.6-10.5-10.4c-0.8-0.8-1.3-1.6-1.7-2.4l-3.7,4.4c0,0-8.8,7.2-15.3,8.9
	c-6.5,1.7-6.5-2.6-8.7-7.6c-2.1-4.9-2.1-8.1-2-9.9c0.1-1.8,3.1-3.3,3.1-3.3c-1.1-0.6-1.3-2.3-1.3-2.3s0.4-3.9,0.8-5.3
	c0.4-1.4,2.3-2.3,2.3-2.3s0,0-1.3-1.5c-1.3-1.5,1.5-5,1.5-5s5.1-4.8,10.2-8.4s10.7,5.9,10.7,5.9s6,9.2,5.9,11.4
	c-0.1,1.3-0.2,3.3-0.2,4.7c0.5-0.7,0.9-1.2,0.9-1.2s10.6-3.8,13.1-5.3c2.5-1.5,3.9-0.3,3.9-0.3l4.1,4.3l2.3,1.3c0,0,0-1.6-1.3-3.8
	c-1.3-2.2-1.4-5-1.4-5s0,0,6.5-6.1c3.1-2.8,5.5-4.4,7.5-5.2c-6.7-3.1-9.2-8-10.5-10.1c-1.6-2.8-3.1-8.5-4.1-10.9c-1-2.4,2-3.8,2-3.8
	l8.5-3.8c0,0,4-1.4,6.6-1.5c2.7-0.1,3.1,5.3,3.1,5.3c0.4-1.9,3.4-3.8,3.4-3.8s4.7,1.3,5.9,1.8c1.2,0.5,1,3,1,3s0,0,1-1.3
	c1-1.3,4.6-0.3,4.6-0.3s5.2,3.3,9.2,9.1c4,5.8-1.4,10.2-3.9,11.9c-2.5,1.7-15.6,6.9-15.6,6.9l-1.4-0.1c0.4,0.4,0.7,0.9,1.2,1.4
	c2.9,3.5,5.6,15.1,5.6,15.1l-1.5,1.8l-4.4,3.5c0,0,1.4,0.5,3.4-0.3c1.9-0.8,6.1-1.3,6.1-1.3s2.7,3,7.7,8.9c1.9,2.2,3,3.8,3.6,5
	c0.6-1.6,1.3-3.2,1.5-3.5c0.6-0.8,6.9-5.7,11.5-9.1s10-1.3,10-1.3s6.6,9.6,6.6,15.1c0,5.1-3.8,4.6-4.3,4.5c2.1,0.4,2.9,1.2,1.9,5.8
	c-0.9,4.6-3.6,4.8-3.6,4.8c3,1.6,1.3,6.7,0.5,6.9c-0.8,0.2-7.2,7.6-10.5,9.1s-8.5-4.4-9-5c-0.5-0.6-5.5-9.9-6.9-12.9
	c-0.5-1.1-0.6-2.6-0.5-4.2c-0.3,0.3-0.5,0.5-0.5,0.5S1854.6,142.3,1852.3,143.5z"/>
<path fill="#808081" d="M2085.8,274.1c-26.2,0.8-32.7,18.9-32.7,18.9c-22.2,5.2-26.6,26.4-26.6,26.4c12.4,22,32.7,19,32.7,19
	c14.1,16.5,36.6,9.3,36.6,9.3c12.7-21.2,0.2-37.1,0.2-37.1C2103.6,289,2085.8,274.1,2085.8,274.1z"/>
<path fill="#808081" d="M2196.8,436.8c-4.3-0.4-10.4,6.1-10.4,6.1s-1.6,0-2.6-0.3c-0.9-0.3-2,0.2-2,0.2s-0.3-0.7-0.8-1.5
	c-0.6-0.8-2.8-1.2-2.8-1.2s6.4-3,10-11.4c3.7-8.4-2-15.1-2-15.1c-4.8-5.4-9.4-3.8-12.5-2.7c-3.1,1.2-8.2,4.5-8.2,4.5
	c0.8-1.4,3.8-11.8,3.8-11.8s0-5.8-4.4-8.6s-11.2-1.8-11.2-1.8c-10.3,2.2-15.1,13.8-15.1,13.8s-0.5-1.4-1.5-2.7s-1.7-1-1.7-1l0.2-1.5
	l-0.5-0.8l-0.3-1.8c0,0,1.1-1.8,1.3-2.2c0.3-0.4,2.2-2.7,2.2-2.7c1.8-4.1,0.3-6.9,0.3-6.9c-7.4-5.9-19.1-1.3-19.1-1.3l-2.2,0.8
	c-13.6,4-15.8,12.9-15.8,12.9c2.7,5.9,10.9,7.3,10.9,7.3s0.5,1.2,1.3,2.8c0.8,1.7,0.8,1.2,0,2.2c-0.8,1-0.3,3.2-0.3,3.2
	c-2.5-1.8-10.2-2.8-10.2-2.8s-14-0.8-17.1,10.3c-3.1,11,12.3,16.1,12.3,16.1c-8.7,0.8-13.3,3.3-13.3,3.3c-6.7,4.3-2.9,13.1-2.9,13.1
	c4.2,12,21.7,10.6,21.7,10.6s0,1.1-0.8,2s0.7,2.4-0.2,2.7c-0.9,0.3-3.1,2.6-3.1,2.6s0,0-4.9-0.3c-4.9-0.3-7.7,3.3-7.7,3.3
	c-1.3,8.7,9.9,17.7,9.9,17.7c8.9,7.4,16,9.2,19.7,6.9c3.8-2.3,1.8-8.4,1.3-9.3c-0.4-0.8,0-3.3,0-3.3c1.3-1.6,1.7-3.5,1.7-3.5
	c0.3,0.8,2.2-0.3,2.2-0.3l2.2-0.8c1.6,9.3,3.9,11.8,3.9,11.8c7.9,11.4,17.7,7.4,17.7,7.4c8.9-3.2,6.4-18.9,6.4-18.9l1.8,2
	c0,0,8.7,16.1,19.7,5.3c11-10.8-0.3-25-0.3-25c3.5,0.1,4.3-1.8,4.3-1.8c0.7,1.3,3.6,1.3,3.6,1.3c4.3,9.9,9.4,9.9,9.4,9.9
	c10-5.7,10.7-18,10.7-18C2204.1,448.3,2201.1,437.2,2196.8,436.8z M2154.4,446.6c0,0-1.8-2.2-2.9-0.2l-0.5,1.2c0,0-0.6,0.3-0.5,0.7
	c0.1,0.4,0.5,1.3,0.5,1.3v1.3c0,0,0.8,1,2.8,0.3c0,0,3,0.2,2,2.8c-0.9,2.7-2.9,5.9-2.9,5.9s-1.5,2.3-6.9,0.5c0,0-2.7-2.2-3.8,1.7
	c0,0-1.8,5.8-8.4,2.5c-6.4-3.2-3.8-5.2-3.8-5.2s1.8-0.3,2.2-0.8c0.4-0.6,0-2,0-2l-1.2-1.2c0,0-0.3-0.5-0.8-0.8
	c-0.6-0.3-2.3-1.7-2.8,0.2c-0.3,1.8-1.1,2.8-1.7,2.8c-0.6,0-1.7,0.3-2.8-0.8l-3.8-5.9c0,0-2.3-2.2,2-5c4.4-2.8,3.6-2.3,3.6-2.3
	l-2.9-4.5c0,0-2.9-2.8,3.4-6.4c6.3-3.5,5.6-1,5.6-1s-0.4,3,1,3.3c1.4,0.3,2.3,0,2.3,0l1.7-1.2c0,0,1.3-1.2,0-2.7
	c-1.3-1.5,0-2.8,0-2.8l1.5-0.7l5.6-0.7c0,0,4-0.6,4.3,4.5c0.3,5.1,1.5,3.8,1.5,3.8h5.1c0,0,3.1-0.8,3.4,6.6
	C2158,449.3,2154.4,446.6,2154.4,446.6z"/>
<path fill="#686868" d="M2071,416.4c-0.2-0.2-0.2-1.7-0.3-3.2c0-1.5-2.1-7.4-2.6-8.1c-0.4-0.7-2-3-2.1-3.2c0-0.2-1.4-3.6-1.8-4.4
	c-0.5-0.8-1.3-1.8-1.7-2.2c-0.4-0.4-1.6-1.7-1.8-2c-0.2-0.3-3.1-1.8-3.7-1.8c-0.6,0-1.1-0.6-1.1-0.6c2.5-2.5,2.6-2,5.2-5.5
	c2.7-3.5,2.5-8.4,2.5-8.4c1.4-2.3,1.8-7.6,1.8-7.6l0.2-2.8c0,0,0.1-1.5-0.1-3.7s-0.8-3-0.8-3s0.1-1.3-0.3-2.4
	c-0.3-1.2-0.8-1.5-2.1-1.8c-1.3-0.3-1.9-2.2-1.9-2.2s-1.1-2.2-1.6-2.2c-0.5,0-3-0.8-3-0.8s-1.5-1.1-2.3-2c-0.8-0.9-2.8-0.6-2.8-0.6
	s-1-0.2-1.5-0.3c-0.5,0-2,0.3-2,0.3h-1.8c0,0-1.8,0.3-2.5,0.3c-0.6,0-3.8,1.4-4.2,1.4s-3.4,1.6-3.4,1.6s-3,1.6-4.5,2.3
	s-2.8,1.7-4.2,2.1c-1.4,0.4-2.5,1.8-2.9,2.3c-0.5,0.5-2.7,5.4-2.7,5.4l-0.3-0.6c-0.9-2.1-3.7-3.8-4.1-4.5c-0.4-0.7-3.7-1.8-5.6-2.3
	c-1.9-0.5-4.4-0.8-4.4-0.8l-2.2-1c0,0-2.6,0-3.4-0.5c-0.8-0.5-6.5-0.3-7.9-0.3c-1.3,0-2.9,0.8-3.6,1c-0.7,0.2-1.9-0.3-2.3,0.2
	c-0.4,0.4-2,1.2-3.3,2.2c-1.2,1-1.8,1.6-2.9,2c-1,0.4-1.4,1.8-1.5,2.8c-0.1,1-0.7,2.9-1.7,4c-1,1.1,0,2,0,2s0,1.4-0.3,2
	s-0.1,1.8-0.2,2.2c-0.1,0.4-0.2,1.3,0.5,5c0.7,3.7,4.6,8.9,4.6,8.9s1.6,4.2,3.4,6.6c1.8,2.3,6.8,5.2,6.8,5.2c-3,1.6-6,6.9-6.4,8
	c-0.5,1.2-1.2,5.8-1.2,5.8s-1,2.9-1.3,3.6c-0.3,0.7-0.8,5-0.8,5l0.3,6.3l0.8,2.7c0,0,0.4,2.4,0.4,2.6s3.5,2.4,3.7,2.8
	c0.2,0.4,1.5,2.5,1.5,2.5s3.3,1.2,3.8,1.6c0.5,0.4,3.2,2.3,3.2,2.3l3.4-0.3h2l4.3-0.3c0,0,1.5-0.7,4-1.7c2.5-1,5.5-2.9,5.5-2.9
	s1.6-0.3,3.9-1.3c2.1-1.1,4.4-3.1,5.6-4.5s2.6-4.3,2.6-4.3c2.5,4.1,4.6,4.7,6.8,5.9c2.2,1,5.4,1.5,5.9,1.5s2.5,0.8,2.5,0.8
	s1.8,0.6,3,0.8s4,0.4,4,0.4l3.9,0.1c0,0,1.5,0,2.5,0c1,0,1.9-0.1,1.9-0.1l1.4-0.9c3-0.1,3-0.8,3.7-1.8c0.7-1,2.2-2.2,2.5-2.3
	c0.2,0,1.6-0.4,2.5-2.7c0.8-2.3,0.6-1.7,1.9-3.6c1.3-1.9,0.6-3,0.5-3.4c-0.1-0.4,0.8-1.7,0.8-1.7S2071.2,416.6,2071,416.4z
	 M2028.2,395.9l-2.9,6.6l-3.1-4.7l-6.7-3l4.8-3.1l3-6.4c0,0,0.5,0.2,1,1.1c0.5,0.9,3,4.3,3,4.3l5.4,1.8l0.2,0.7L2028.2,395.9z"/>
<path fill="#4F4E4E" d="M2204,286c-2.8,0.1-8,2.7-8,2.7s-8.4-3-9.4-3s-8.5,0.8-8.5,0.8c-1.8-2.3-5.4-6.1-15.5-6.3
	c-10-0.2-17.4,6.6-17.4,6.6s-6,3.9-10.7,13.3c-4.7,9.4,1.8,17.4,1.8,17.4l-3.8,8.8l1.2,9.1c-1.6,1-5.5,5.3-6.4,13.1s2.8,14.4,6.3,19
	c3.6,4.6,10.7,9.4,10.7,9.4c11.6,5.9,20.6-0.3,20.6-0.3c2.3,1.1,8.9,3,8.9,3l3.1,0.2l6.3-0.5c9.7,8.8,19.6,5.3,19.6,5.3
	s8.8-0.1,19.4-11.9c10.6-11.9,2.9-25,2.9-25l3.1-8.9l-0.8-8.8c0,0,4.5-2.6,5.8-8.8s2.3-12.4-6.4-23.7
	C2217.9,286.1,2206.7,285.9,2204,286z M2191.5,347.2c0,0-1.3,11.4-15.8,18.7c0,0-9.1-7.3-9.7-22.4c0,0-10.5-0.7-19.1-15.3
	c0,0,7.3-10,22.7-9.8c0,0,3.9-14.7,16-18.9c0,0,10.7,9.4,9.7,22.5c0,0,11.6,1.3,18.7,15.1C2214,337.3,2208.2,346.5,2191.5,347.2z"/>
<path fill="#808081" d="M2577.7,332.6l-3.1-4.2l-2.9-4l-3.4-3.3l-3.9-2.5l-3.4-2.7l3.1-3.7v-4c0,0,0-2.5,0-3.2s-0.2-1.7-0.2-2.3
	s-1.2-2.5-1-3c0.2-0.5-1.5-3.2-1.5-3.2l-2.6-2.2l-2-1l3.3-4.8l3.6-7.9l2-6.3l0.2-4.8l-1.2-4.5l-3.3-4.1l-4.6-2.9l-3.9-1h-3.3h-4.8
	l-2.5,0.8l-2.9,1.2l-1.5,0.8l1.5-4.7l-1-4.8l-2-3.7l-2.6-3.8l-4.3-3l-4.9-1.9h-3.8l-4.3,1.9l-3.4,1.6l-3.1,2.7l-3.6,2.5l-3.4,4.2
	l-1.7,2.6l-2.1,1.9l-4-1.9l-4.1-1.2h-2.8l-1.7,1.2h-3.4l-3.3,1.3l-1.2,1.7l-2,1.7l-0.8,1.8l-4.4-2.7l-6.1-3l-5.8-2.3l-6.3-1
	l-4.9,1.2l-3.8,1.4l-1.8,2.9l-1.8,2.3l-1.3,4.3c0,0-1.2,3.5-1.2,4s0.3,4.7,0.3,4.7l3.2,4v2.2l-6.2-0.5l-3.6,1l-6.8,3.2l-3.1,4
	l-1.8,5.2l-0.9,5.2l2.5,4.7l4.4,5.2l5.4,5.3l6.9,4.7l-3.1,3.2c0,0,0.7,4.3,0,4.8c-0.7,0.5-0.3,4.8,0,5.3c0.3,0.5,1.3,4.5,1.3,4.5
	v2.3l3,1.7l2.8,1.5l-2.8,2.8l-3.6,7.9l-1.1,3.3l-1.6,3.8v3.7l0.7,4.2l3.1,5l2.6,1.9l3.8,2.6l3.3,0.8h4.8l5.9-1.2l2.9-2.3v5.7
	l0.7,4.5l4.9,7.4l3.4,2.2l4.3,2l4.8,0.8l4.9-1.8l4.6-4.3l3.4-3l4.3-4l3.5-3.8l0.8-1.5l3.3,2.8l3.8,0.5h3.9h2.3l2.2-1l3.6-1.7l3.1-3
	v-1.6l4.3,2.3l5.9,3l4.8,2.2l6.6,0.8l4.4,0.3c0,0,3.4-1.5,3.9-1.5c0.5,0,4.4-3,4.4-3l2.8-5.9l0.8-5.3v-3.9l-1.2-3.8l-2.3-3.3
	l5.3,0.9l4.9-0.9l4.1-2.2l5.4-3.8l3.1-5.8l-0.7-5.2L2577.7,332.6z M2556.8,315.1v4l-1.2,4.3l-2,2.2l-1.2,1l-2,2.5l0.7,2.3
	c0,0,0.7,1.5,0,2c-0.7,0.5,0,2.5,0,2.5l-2.6,2.7l-4.9,0.8c0,0,0,0-0.2,0.5c-0.2,0.5,0.2,1.5,0,2c-0.2,0.5,0,3,0,3s-1,0-2,0
	s-1.7,0.5-2.5,0.7c-0.8,0.2-0.9,1.2-1.1,1.7c-0.2,0.5,1,1.7,1,2.2c0,0.5,0.2,1.7,0,2.2c-0.2,0.5-0.5,2.3-0.8,2.9
	c-0.3,0.6-2.2,1.4-2.8,1.4c-0.5,0-2.9,0.5-2.9,0.5l-2.3,3.3l-1.2,1v1.3l-2,2.2c0,0-0.8,1.3-1.5,1.8c-0.7,0.5-3.3,0.8-3.8,0.8
	c-0.5,0-2,0.7-3.3,0.5s-3.1-1-3.1-1s-1.2,0.5-1.7,0.8c-0.5,0.3-3.1,1-3.1,1l-2.8-1.7l-1.8,0.3l-0.7,1.7c0,0-0.5,1-1,1
	c-0.5,0-1.7,2-1.7,2s-2.2-0.2-3.3-0.7c-1-0.5-1.3,0.2-1.8,0.5c-0.5,0.3-1.5,0.2-2.2,0s-3.6-2-5.1-2.7c-1.5-0.7,0-2.5,0-2.5
	s-1.5,0.4-2,0c-0.5-0.4-1.5-1.1-1.5-1.1s-0.8,0.2-1.3,0.3c-0.5,0.1-2.9,0.3-3.4,0.7c-0.5,0.4-1.8,0-1.8,0s-2-2.3-2.6-3.3
	c-0.5-1-1.2-2.4-1.2-2.4s-1.7,0.4-2.3,0c-0.7-0.4-2.6-0.2-2.6-0.2s-1.3,0.5-2.3,0c-1-0.5,0-1.2,0-1.2s0,0-0.5-0.2
	c-0.5-0.2-0.7-2.2-0.8-2.7s0-2.7,0-2.7l-1,0.2l-2.6,0.9h-2.2l-2.3-2.3v-3.2v-2.7l-1.5,0.3l-2-2.2l-1.2-0.8l-1.3,0.5
	c0,0-2-1.5-2.6-2.3c-0.5-0.8-0.8-2.8-1-3.5s-1.8-2.5-2-3.2c-0.2-0.7-0.3-1.3-0.3-1.3l1-2.5c0,0,2.3-0.7,2-1.2
	c-0.3-0.5-0.3-0.8-0.7-1.7c-0.3-0.8-1.3-2-1.3-2l-0.3-2.9c0,0,0.8-1.7,1.3-2.2c0.5-0.5,0.5-0.7,0.5-0.7l-1.7-0.7c0,0-2-0.2-2.6-0.5
	c-0.5-0.3-1.2-1.5-1.7-2.1c-0.5-0.6-1-1.9-1.3-2.7c-0.3-0.8,0.7-1.8,0.7-2.3c0-0.5,0.7-1.3,1.3-2.2c0.7-0.8,0-1.2,0-1.7
	c0-0.5,0.7-1.3,0.8-2c0.1-0.7,2.3-0.3,2.3-0.3s0,0,0.2-1c0.2-1,0-1.2,0-1.2s2-0.8,2.1-1.3c0.2-0.5,0-1.7,0-1.7s-1.2-2-1.8-2.5
	c-0.7-0.5,0-1.8,0-2.3c0-0.5,0-1.5,0-1.5l3.4-1.3l2.1-0.5c0,0,0.5-2,0.1-2.5s0.2-1.5,0.1-2.2s0.2-1.7,0-2.2s1-0.8,1-0.8l2.2-0.2
	l3.8-2l-0.3-1.5v-1.8v-1.8l1.7-2.3l2.9-0.2l3.6-0.8l1.5-1.3l0.8-1.3l-0.3-1.3l0.2-1.5l1.7-1.5l1.5-1.9l3.8-2.3l3.9,0.3l3.1,0.8
	l3.1-1.7l1.3,0.2l3.6,0.5l1.7,0.7l0.3-1.5l1.7-1.9l1.5-1.1h2h2h2.6l3.3,1.1l1.3,2.2l1.3,1.5l1.7,1.1h1.5h3.6h3.1l1.7,3.3l1.7,1.5
	h2.8h2.2h1.5c0,0,0.5,1.3,0.7,1.8c0.2,0.5,1,1.8,1,1.8l2,3.2h2.6l3.1,0.7l1.5,3.5v4.2h1.1l1.4,1.8h2.6h1.7l2,2c0,0,1.7,3,1.7,3.5
	s1,3,1.2,3.5c0.2,0.5-0.2,1.7-0.3,2.2c-0.2,0.5-1.7,2-1.7,2s0.2,1,0.5,1.5s0.3,0.8,0.3,1.7s1.2,1.5,1.2,1.5l-0.2,2l-1,3h2.3l2.6,1.7
	v3.2L2556.8,315.1L2556.8,315.1z"/>
<path fill="#808081" d="M2606.9,134.3c-3-9.8-7.2-10.8-7.2-10.8l-1.3,0.2c0,0-2.9-10-8.4-10.9c-5.5-0.9-9.1-0.9-12.3,2l-1.5,1.5
	c0,0-1.6-0.6-2-0.8c-0.5-0.3,1.8-8-2.9-12.6c-4.7-4.6-10.7-2.8-10.7-2.8l-3.6,0.8c0,0-0.7-5.3-14.3-1.7c0,0-9.5,2-9.7,7.8
	c0,0-8.4,2.5-10.7,7.8s1.3,11.8,1.3,11.8l2,2.3c0,0,0.4,1.6-0.3,1.7c-0.8,0.1-5.2-1.4-9.5,0.8c-4.3,2.2-5.1,4.5-5.1,4.5
	s-3.3,5.1-1,11.6l0.3,0.8c0,0-5.3,0.6-2,12.3l1.5,4.5c0,0,2.1,7.1,7.2,6.8c0,0,2,6.4,4.4,8.1c2.3,1.7,4.6,3.2,8.4,2.8
	c3.8-0.3,5.6-0.5,8.5-3.5c0,0,2-0.1,2,1.2s-0.8,3.7,0.3,6.4c1.2,2.7,3.9,6.4,3.9,6.4l4.4,1.7l4.6,0.7c0,0,3.6-0.9,4.3-0.8
	c0.7,0.1,1,4.8,11.5,2l9-2.7c0,0,3.8-2.5,3.9-5.8c0,0,7.3-3.1,9.5-6.6c2.3-3.4,1.3-7.3,1.3-7.8s-1.5-5-1.5-5s-0.9-1.5-2.6-2.3
	l1.3-1.7c0,0,5.1,0.3,5.9,0s6.4-3.7,7.2-4c0.7-0.3,1.5-2.8,1.8-3.8c0.3-1,1.1-6.8,0.2-9.6C2605.3,147.5,2609.9,144,2606.9,134.3z
	 M2533.3,121.8c0,0,0.8-2.9,0.7-3.3s2.5-3.5,2.5-3.5l1.5-1.7c0,0,0.8-2.2,2.7-1.5c0,0,2.9,6,1.5,10.2c-1.3,4.3-2.5,8.7-4.7,8.3
	C2535.1,129.8,2531.8,125.7,2533.3,121.8z M2517.9,151.7c-1.5-1.2-0.1-3-0.1-3l0.7-2.1c0,0,1.4-3.7,1.8-3.9s2.5-2.3,2.5-2.3
	c2.6-3.2,7.9-2.5,9.4-0.7c1.5,1.7-1.7,4.8-4.8,8.2C2524.4,151,2517.9,151.7,2517.9,151.7z M2531.9,171.8c0,0-3-0.6-3.4-0.5
	c-0.4,0.1-3.8-2.2-3.8-2.2l-1.8-1.3c0,0-2.2-0.7-1.7-2.5c0,0,5.8-3.2,10.2-2.1c4.4,1,8.9,1.8,8.7,4
	C2539.8,169.4,2535.9,173,2531.9,171.8z M2534.3,159.2c0,0-6.4,1.2-8.2-3.2c0,0-2.5-3.8,5.4-6.4c0,0,5.2-1.4,11.4,2
	C2543,151.6,2541.3,156.6,2534.3,159.2z M2557.1,107.7l2.1,0.9c0,0,3.7,1.6,3.8,2c0.1,0.4,2.1,2.6,2.1,2.6c3.1,2.8,1.9,8,0.1,9.4
	c-1.8,1.4-4.8-2-8-5.2s-3.4-9.8-3.4-9.8C2555.4,106.1,2557.1,107.7,2557.1,107.7z M2548.5,116.5c3.2-0.3,6.1,2.8,6.8,7.3
	c0.7,4.3-2,9.9-2,9.9s-5.8-5.2-6.8-7.3S2545.4,116.8,2548.5,116.5z M2558.3,186.6l-2.1-0.7c0,0-3.8-1.4-4-1.8
	c-0.2-0.4-2.3-2.4-2.3-2.4c-3.3-2.5-2.6-7.8-0.8-9.3c1.7-1.5,4.9,1.7,8.4,4.7c3.4,3,4.1,9.5,4.1,9.5
	C2560.2,188,2558.3,186.6,2558.3,186.6z M2565.7,178.5c-1.6,0.4-3-0.1-5.6-3.8c-2.7-3.7,1-12.9,1-12.9c3.4,0.3,7.5,6.9,7.5,6.9
	C2570.1,176.6,2567.3,178.1,2565.7,178.5z M2574.6,127.5c0.4-2.2,4.6-5.5,8.5-4.1c0,0,3,0.8,3.4,0.7c0.4-0.1,3.6,2.4,3.6,2.4
	l1.7,1.5c0,0,2.2,0.8,1.5,2.6c0,0-6,2.8-10.3,1.4C2578.6,130.8,2574.2,129.8,2574.6,127.5z M2580,136.4c4.7-1.3,8.4,1.3,8.7,2
	c0,0,1.7,3.8-6.1,7.4c0,0-6.5,1.2-10.7-2.3C2571.8,143.4,2575.3,137.7,2580,136.4z M2581.7,172.7c0,0-0.6,2.9-0.5,3.3
	c0.1,0.4-2.2,3.7-2.2,3.7l-1.3,1.8c0,0-0.7,2.3-2.6,1.7c0,0-3.3-5.8-2.2-10.1s1.8-8.9,4.1-8.6
	C2579.2,164.9,2582.9,168.7,2581.7,172.7z M2597.3,147.1l-0.9,2.1c0,0-1.6,3.6-2,3.7c-0.4,0.1-2.7,2.1-2.7,2.1
	c-2.9,3-8.1,1.9-9.5,0.1c-1.4-1.8,2-4.7,5.3-7.9s9.9-3.3,9.9-3.3C2598.9,145.2,2597.3,147.1,2597.3,147.1z"/>
<path fill="#4F4E4E" d="M2358.5,34c-0.2-2-0.3-4.3-0.3-4.3l-1-3.2l-0.8-4.7c0,0-1.8-2-2.2-2.7c-0.3-0.7-0.5-3.3-0.5-3.3
	s-1.7-1.9-2.3-1.8c-0.7,0.1-4.8-3.7-4.8-3.7s-1.4-1.4-2.2-1.3c-0.8,0.1-3.6,0.7-3.6,0.7l-3.8-1.3V4.3c0,0,2.6-2.3,2.8-2.8
	c0.2-0.6,0.3-2.9,0.3-5s-78.4,2.5-78.4,2.5l-2.6,2.7c0,0-1.6,0.3-2.6,2c-0.9,1.8-1.5,3-1.5,3l-2,2.8c0,0-1.5,2.7-1.2,4.3
	c0.3,1.7,8.4,27.5,8.4,27.5s2.6,0.9,2.8,1.3c0.2,0.4,0.9,1.5,3.1,1.7s5.1-0.2,5.1-0.2l2,0.7c0,0,0.3,2.6,0,3.2
	c-0.3,0.6-3.2,2.8-3.1,3.7s0.5,7.8,0.5,7.8l0.8,1.2c0,0-0.4,2.1,0.5,2.5c0.9,0.4,2,1.2,2.3,1.7c0.3,0.5,1.8,4,1.8,4l2.9,2.5
	c0,0,3.1,2.7,5.4,4.2c2.3,1.5,3,2,4.9,2.5c1.1,0.3,3.3,0.8,5.4,1.1c1.6,0.3,3.2,0.4,4.3,0.4c2.2-0.1,7.4-1.3,8.9-1.7
	c0.3-0.1,0.5-0.1,0.5-0.1l3.1-2c0,0,1.2-1.4,1.7-1.3c0.5,0.1,2.2,0.3,2.9,0c0.7-0.3,2-2.2,2-2.2s0.5-0.7,1.2-1.2
	c0.7-0.5,3.3-4.7,3.6-5.3c0.3-0.7-0.8-3.3-0.7-4.2c0.2-0.8,1.5-3.7,1.5-3.7s3.2,0.2,3.6,0.3c0.4,0.2,3.6,2.8,3.6,2.8l7.5-0.5
	c0,0,0.7-0.7,1.2-0.8c0.5-0.2,2.2-0.5,2.2-0.5l1.5-2.3c0,0,3.9-1.9,4.3-1.8c0.4,0.1,2.8-2.8,2.8-2.8s2-1.7,2.6-2.3
	c0.5-0.6,1-2.5,1-2.5l1-1.3l2-2.7l1-2.8C2358,40.5,2358.6,36.1,2358.5,34z"/>
<path fill="#808081" d="M2465,231.5c1.3,2.8,2.9,5.2,2.9,5.2l1.2,2c0,0,1,0.3,1.5,0.5c0.5,0.2,4.4,3.8,7.7,4.5c3.4,0.7,8.1,1.2,12,1
	c3.9-0.2,9.7-2.3,11-3s5.1-3.2,5.1-3.2l2.8-3.5l1.7-1l0.2-1.7l1-1.2l0.8-4.7l4.8-2c0,0,0.7-0.8,1.2-1c0.5-0.2,1.2-0.8,1.2-0.8
	l0.7-1.7l2.2-2.5l1.2-2.5l1.3-2.3l0.3-3.3l1.3-3.2l-1.2-9.3l-1.5-4.8c0,0-0.6-2.2-1.3-3.2c-0.7-1-1.8-1.8-1.8-1.8s-0.7-1.6-1.3-2.7
	c-0.7-1.1-3.4-1.8-3.4-1.8l-0.7-1.7l-0.8-0.3l-2.3-1l-5.1-1.3l-1.7-3.7l-0.7-1l-1.3-2.2l-1.3-0.3l-2.8-2.2l-1.8-1.2l-2-0.8l-3.1-1
	l-5.1-0.8l-5.1,0.3l-4.3,0.8c0,0-3.7,1.1-4.4,1.5c-0.8,0.4-3.1,0.8-3.1,0.8s-2.2,1.8-3.8,3s-2.8,3.2-2.8,3.2l-1.8,1l-0.7,2l-0.8,1.2
	c0,0-0.7,4.3-1.2,4.7c-0.5,0.4-4.6,1.8-4.6,1.8l-1.3,1.4c0,0,0,0-0.7,0.3c-0.7,0.3-0.7,2-0.7,2l-2.9,3.2l-1,3c0,0-1,2.5-1.5,4.7
	s-0.5,6.9-0.5,6.9s0.8,6.2,0.8,6.9s2,4.7,2,4.7l1.3,3l2.2,2.7l2.9,2.3c0,0,0.9,1.2,1.3,2c0.4,0.8,0.8,0.5,1.7,0.5
	c0.9,0,0.8,0.8,0.8,0.8L2465,231.5z"/>
</svg>
