<?xml version="1.0" encoding="utf-8"?>
<!-- Generator: Adobe Illustrator 18.1.0, SVG Export Plug-In . SVG Version: 6.00 Build 0)  -->
<svg version="1.1" id="voronoi" xmlns="http://www.w3.org/2000/svg" xmlns:xlink="http://www.w3.org/1999/xlink" x="0px" y="0px"
	 width="7680px" height="1080px" viewBox="0 0 7680 1080" enable-background="new 0 0 7680 1080" xml:space="preserve">
<g>
	<g>
		<polygon fill="#010202" points="1525.8,562.9 1452.7,605.4 1439.9,598.4 1432.3,602.8 1412.5,582.2 1378.9,604.2 1306,556.4 
			1309.7,546.1 1290,529.4 1265.9,522.2 1264,520.4 1263.5,499.7 1261.4,495.9 1261.5,461.4 1259.1,455.3 1257.1,452.9 1254.9,447 
			1254.9,437.4 1257.4,434.1 1269.8,430 1266.7,423.1 1267.5,418.6 1268.4,417.8 1269.5,417.5 1272.7,412.9 1272.6,408.1 
			1261.7,385.6 1262.1,383.1 1276.9,370.7 1279.9,365 1285.5,360.8 1437.8,263.7 1383.2,261.9 1387.2,255.7 1356.6,239.3 
			1356.5,264.5 1329.7,248 1337,238.4 1319.8,232.4 1334.6,227.8 1276.8,192 1288.9,189.5 1270.3,159.7 1256.2,180.2 1242.7,148.1 
			1253,145.9 1233,92 1243.7,98.3 1249.1,63.1 1226.1,64.6 1163.3,151.5 1142.6,155.4 1142.6,155.9 1143,158.2 1142.9,158.6 
			1140.9,161 1140.8,163.4 1129.1,175 1124.2,173.5 1108.3,188 1087,187.8 1080.9,192.9 1054.6,180.8 1037.6,189.4 1021.8,183.2 
			1018.7,176.9 1017.3,180.5 1008.9,183 1001.6,177.1 1001.2,173.5 998.6,172.4 995.3,164.7 998.2,157.6 986,170.1 974.3,169.8 
			963.9,155.6 955.3,155.6 946.9,131.2 928.3,122.7 904.6,61.8 0,61.4 0,126.2 10,126.2 11.2,124.2 13.3,123.4 19,125.2 38.4,125.1 
			42.1,127 44.8,129.9 47.6,135.9 53.4,138.4 54,139 55.1,139.1 58.2,137.6 78.7,141.8 80.1,141 84.7,140.2 90.2,143.7 91.9,146.1 
			95.6,147.1 100.8,151.6 100.7,157.1 106.1,166.2 107.1,166.6 111.5,164.8 119.1,169.6 128.4,168.4 131.9,171.4 133.4,171.7 
			140.4,168.7 162,167.6 163.6,167 174,154.4 313.2,90.1 330.2,88.5 367,105.5 502,106.4 528.6,86.8 545.5,83.6 568.4,88.2 
			584.1,99 600.1,128.2 613.2,121.3 627.4,120.7 630,121.7 638.3,130.5 639.7,130.8 642,128.7 642.9,126.5 644.3,125.1 651.9,122 
			654.8,119 661.8,119.3 669.5,123.6 672.5,123.7 673,122.8 677.2,120 682.9,125.4 686.9,123 691,122.8 709.1,130.5 711.6,130.6 
			729.9,119.2 770.4,113.1 774,108.8 795.1,112.9 800.1,122 850.1,97.6 854.6,99.4 855.3,98.6 892,104.9 893.6,107.7 901.3,108.1 
			901.1,108.6 901.7,109.7 903,109.5 905.9,114 909.6,111.4 911.8,112.9 912.4,115.9 923.4,121.4 924.7,126.9 930.1,129.5 
			933.9,138.9 936.5,138.9 941.8,167.2 977.2,181.8 979.1,187.3 1031.7,194.6 1034.3,199 1036.2,197 1071.7,236.6 1062.7,283.9 
			1044,310.5 970.4,316 966.5,314.1 964.9,315 959.9,327 941.1,337.8 918.3,377 914,384.3 897.4,391.7 881.4,393.1 866.8,394.3 
			854.5,388.1 836.9,379.3 828.1,374.9 827,375 826.6,375.2 819.2,385.8 820.5,389.2 819.9,391.9 816.8,405.6 808.7,411.5 
			767.2,442.2 755.3,441.9 745.3,441.8 738.4,441.6 709.7,419 709,419.2 703.2,432.8 693.1,456.7 686.7,471.8 678.5,476.2 
			668.5,481.6 660.6,485.9 646,484.5 634.2,483.3 626.5,477.3 610.7,464.8 602.8,443.4 603.5,427.7 598.9,419.1 596.9,417.7 
			595,417.2 593.6,417.7 567.9,439.2 545.7,443.5 511.6,430.7 495.9,454.2 477.9,459.6 466.9,455.3 464.7,462.6 461.6,459.9 
			460.9,459.8 456.4,462.4 456.3,463.4 456.9,463.9 459.7,469.1 456.6,474.1 454.7,474.8 453.2,474.6 451.6,473.4 449.6,469.2 
			449.6,468.4 447.4,466.2 430.5,467 417.8,471.9 387.9,483.6 382.4,485.8 371.2,490.2 367.1,491.7 362.4,493.6 360.8,494.2 
			356.6,495.8 356,502.7 356,513.2 356,528.6 356,546.6 356,558.6 356,570.6 356,583.9 356,645.2 356,1014.3 356,1019.9 
			1527,1019.9 1527,563 		"/>
		<polygon fill="#535353" points="1227.2,536.4 1225.2,536.4 1224,535.5 1219,515.8 1219.8,515.1 1224.8,516.4 1225.4,516.1 
			1225.4,515.7 1176.2,434.3 1174.2,433.6 1157.7,441.8 1154.3,442 1116.5,421.2 1113.8,420.9 1045,440.4 1040.9,439.8 1029,433.4 
			1010.9,430.3 1009.5,431 948.6,540.3 946.9,541 940.9,540.4 940.1,541.5 1001,646.1 1001.8,646.4 1004.5,642.5 1039.5,670.8 
			1116.2,680.9 1118.7,682.3 1211,627.2 1211,626.5 1210,625.7 1208.8,623.1 1227.8,537.3 		"/>
		<polygon fill="#535353" points="1249.6,378.2 1261.2,353.1 1182.9,166.1 1152.9,190.5 1151.9,190.4 1149,188.4 1141.6,190.5 
			1140.9,191.5 1110,199 1103.5,227.5 1098.8,229.8 1097.4,237.9 1088.2,244.9 1079.2,263 1079.1,265.3 1087.1,281.6 1081.7,288.9 
			1073.6,315 1075.5,321.1 1088.2,334.1 1096.9,336.6 1101.6,342.3 1101.4,347.1 1104.3,350.8 1108.2,351.9 1108.6,351.8 
			1110.4,353 1120.1,375.1 1122.6,377.4 1154.2,376.8 1154.9,377 1155.7,378.9 1161.1,382.2 1167.5,380 1168.5,380.2 1175.9,389.1 
			1198.3,399.3 1201.8,399.3 1229.1,379 1248,379.1 		"/>
		<polygon fill="#535353" points="921.7,465.2 914.4,449.1 915.2,438 916,436.3 915.4,426.9 906.9,415.3 859.4,395.6 831.7,399 
			826.8,403 824.9,403.6 820.9,408.7 821.1,409.9 820.4,412.8 816.2,417 813.3,418 812.1,417.9 806.5,421 794,465.8 794.4,466.5 
			795.7,477.3 799.9,482.9 797.9,494.6 801.6,501.4 803.8,502.2 808.3,501.9 826,511.3 841.1,526.2 852,528.1 884.4,514.5 
			887.8,515.7 891.6,515.1 909.9,502.7 915.5,501.3 922.5,489.1 923.1,480.5 920.9,473.4 		"/>
		<polygon fill="#535353" points="1365.9,619.4 1288.4,606.4 1270.9,621.2 1269.8,621.4 1265.2,623.6 1260.2,631.7 1259.9,637.3 
			1250.5,641.4 1245.7,650.5 1248.3,659.2 1247.1,661 1239.3,663.4 1238.5,664.3 1236.9,673.1 1242,682.3 1240.8,687.9 
			1240.4,688.5 1238.1,695.6 1240.5,702.2 1243,705.2 1245.8,713.8 1249.7,718.9 1250.7,725.4 1265.1,734.2 1266.8,734.5 
			1271.5,743.1 1281.1,746.9 1288.6,744.8 1348.6,747.8 1397.7,694.2 		"/>
		<polygon fill="#010202" points="1476.8,231 1446.6,245.1 1453.8,254.1 1478.4,239.1 		"/>
		<polygon fill="#010202" points="1489.5,232.4 1478.4,239.1 1479.4,243.8 		"/>
		<polygon fill="#535353" points="922.5,489.1 915.5,501.3 909.9,502.7 891.6,515.1 887.8,515.7 884.4,514.5 852,528.1 841.1,526.2 
			826,511.3 808.3,501.9 803.8,502.2 801.6,501.4 797.9,494.6 799.9,482.9 795.7,477.3 794.4,466.5 794,465.8 805.2,425.5 
			806.5,421 812.1,417.9 813.3,418 816.2,417 820.4,412.8 821.1,409.9 820.9,408.7 824.9,403.6 826.8,403 831.7,399 859.4,395.6 
			906.9,415.3 915.4,426.9 916,436.3 915.2,438 914.4,449.1 921.7,465.2 920.9,473.4 923.1,480.5 		"/>
		<polygon fill="#535353" points="1210,625.7 1211,626.5 1211,627.2 1118.7,682.3 1116.2,680.9 1039.5,670.8 1004.5,642.5 
			1001.8,646.4 1001,646.1 940.1,541.5 940.9,540.4 946.9,541 948.6,540.3 1009.5,431 1010.9,430.3 1029,433.4 1040.9,439.8 
			1045,440.4 1113.8,420.9 1116.5,421.2 1154.3,442 1157.7,441.8 1174.2,433.6 1176.2,434.3 1225.4,515.7 1225.4,516.1 
			1224.8,516.4 1219.8,515.1 1219,515.8 1224,535.5 1225.2,536.4 1227.2,536.4 1227.8,537.3 1208.8,623.1 		"/>
		<polygon fill="#535353" points="1201.8,399.3 1198.3,399.3 1175.9,389.1 1168.5,380.2 1167.5,380 1161.1,382.2 1155.7,378.9 
			1154.9,377 1154.2,376.8 1122.6,377.4 1120.1,375.1 1110.4,353 1108.6,351.8 1108.2,351.9 1104.3,350.8 1101.4,347.1 
			1101.6,342.3 1096.9,336.6 1088.2,334.1 1075.5,321.1 1073.6,315 1081.7,288.9 1087.1,281.6 1079.1,265.3 1079.2,263 
			1088.2,244.9 1097.4,237.9 1098.8,229.8 1103.5,227.5 1110,199 1140.9,191.5 1141.6,190.5 1149,188.4 1151.9,190.4 1152.9,190.5 
			1182.9,166.1 1261.2,353.1 1249.6,378.2 1248,379.1 1229.1,379 		"/>
		<polygon fill="#535353" points="1397.7,694.2 1321.7,754.9 1288.6,744.8 1281.1,746.9 1271.5,743.1 1266.8,734.5 1265.1,734.2 
			1250.7,725.4 1249.7,718.9 1245.8,713.8 1243,705.2 1240.5,702.2 1238.1,695.6 1240.4,688.5 1240.8,687.9 1242,682.3 
			1236.9,673.1 1238.5,664.3 1239.3,663.4 1247.1,661 1248.3,659.2 1245.7,650.5 1250.5,641.4 1259.9,637.3 1260.2,631.7 
			1265.2,623.6 1269.8,621.4 1270.9,621.2 1288.4,606.4 1346.4,605 		"/>
		<polygon fill="#010202" points="1453.8,254.1 1437.8,263.7 1462.2,264.5 		"/>
		<polygon fill="#010202" points="1247.2,25.8 1247.6,34.8 1250.9,30.2 		"/>
		<polygon fill="#010202" points="1237.5,35.6 1225.8,64.6 1226.1,64.6 1243.9,39.9 		"/>
		<polygon fill="#010202" points="1265.5,10 1250.9,30.2 1257.8,38 		"/>
		<polygon fill="#010202" points="1247.6,34.8 1243.9,39.9 1248,42.7 		"/>
	</g>
	<polygon fill="#010202" points="76.8,623.3 75.8,622.9 69.5,625.6 63.5,628.2 57,631 33.5,641.1 22.6,640.9 9.3,640.6 4.2,640.4 
		3.4,637.9 2.7,639.4 0.8,640.5 0,640.6 0,1018.9 76.8,1018.9 77,1013.3 77,963.2 77,811.2 77,784.6 77,691.9 77,672.6 77,658.6 
		77,644.6 77,630.9 	"/>
	<polygon fill="#010202" points="1034.3,199 1034.1,199.1 1034.3,199 	"/>
	<path fill="#010202" d="M1248,42.7l-0.1-0.1L1248,42.7z"/>
	<polygon fill="#535353" points="796.3,460.8 796.4,461.1 796.2,461 	"/>
</g>
<g>
	<polygon fill="#535353" stroke="#010202" stroke-linecap="round" stroke-linejoin="round" points="946.2,553 954,566.5 
		961.7,579.8 969.5,593.2 977.3,606.6 985.1,620 992.9,633.4 1000.6,646.8 1003.4,641.5 1020.4,655 1037.4,668.5 1038.4,670.4 
		1056.6,672.8 1074.9,675.3 1093.2,677.8 1111.4,680.2 1113.6,679.6 1117.8,682.1 1123.8,678.6 1141.4,668 1153,661.1 1164.6,654.2 
		1176.2,647.2 1187.8,640.2 1199.5,633.3 1211.1,626.3 1207.6,624.3 1210.1,613.2 1212.5,602.1 1215,591 1217.5,579.9 1220,568.8 
		1222.4,557.7 1224.9,546.6 1227.4,535.5 1223.3,536 1220.5,525 1217.7,514 1225.5,516.6 1219.1,506 1212.7,495.5 1206.4,485 
		1200,474.4 1193.6,463.9 1187.3,453.4 1180.9,442.9 1174.6,432.4 1155,442.1 1142.6,436.6 1128.5,428.2 1114.3,419.9 1096.2,425 
		1078.1,430.1 1060,435.2 1041.9,440.3 1030.1,433.2 1008.9,429.6 1001.2,443.5 993.5,457.4 985.7,471.3 978,485.2 970.3,499.1 
		962.6,512.9 954.9,526.8 947.2,540.6 938.3,539.4 	"/>
</g>
<polygon fill="#010202" points="356.4,1030.9 356.4,999.9 356.4,960.5 356.4,930.6 356.4,922.6 356.4,912.6 356.4,898.6 
	356.4,891.9 356.4,876.6 356.4,763.1 356.4,755.9 356.4,749.2 356.4,737.9 356.4,731.9 356.4,723.9 356.4,716.6 356.4,684.1 
	356.4,633.2 356.4,621.9 356.4,613.9 356.4,583.9 356.4,565.7 356.4,526.2 356.4,520.6 356.4,511.9 356.4,508.6 356.4,502.7 
	356.4,486.7 356.4,447.3 76.8,447.3 76.8,486.7 76.8,526.2 76.8,565.7 76.8,605.2 76.8,644.6 76.8,684.1 76.8,723.6 76.8,763.1 
	76.8,802.6 76.8,960.5 76.8,999.9 76.8,1030.9 "/>
<polygon fill="#010202" points="462,829.9 538.1,548.7 399.4,625.2 374.6,574.2 426.4,592.2 456.4,538.2 525.4,508.2 562,529.9 
	604,527.9 639,524.9 674,521.9 691,507.9 708,493.9 720,485.9 732,477.9 752,504.9 772,531.9 782,541.9 792,551.9 825,549.9 
	858,547.9 874,547.9 890,547.9 902,581.9 914,615.9 912,638.9 910,661.9 942,684.9 974,707.9 998,714.9 1022,721.9 1068,721.9 
	1114,721.9 1143,711.9 1172,701.9 1183,718.9 1194,735.9 1211,764.9 1228,793.9 1272,797.9 1316,801.9 1444,803.9 1392,887.9 
	1312,878.9 1232,869.9 1179,822.9 1126,775.9 1073,786.9 1020,797.9 962,777.9 904,757.9 865,706.9 868.1,608 830.6,596 788,611.9 
	751.1,650 712.8,692.7 652.8,677.7 630.3,594.5 586.8,571.2 561.4,549.5 691.1,592.2 742.1,560 411.4,653 775.1,1008.5 
	680.6,1007.7 626.6,1006.2 596.6,1007.7 547.9,1007.7 485.6,1004 438,977.9 416,911.9 394,845.9 403,753.9 400.1,679.2 437,745.9 
	462,829.9 "/>
<polygon fill="none" stroke="#C72567" stroke-width="8" stroke-miterlimit="10" points="1146.5,176.9 1123.5,184.4 1097,208.9 
	889,73.9 839,68.9 0,-6 0,79.9 11,79.9 12.3,77.3 42.1,78.5 49.1,84.9 52.2,92.8 60.4,97.1 63.8,95.1 92.8,98.5 110.4,113.6 
	110.3,120.9 116.3,133 117.4,133.5 122.2,131.1 130.5,137.5 140.7,135.9 144.5,139.9 308,72.4 479.5,83.4 531.5,68.9 570,72.4 
	598,89.9 619.4,75.5 631.4,88.5 632.9,88.9 649.5,73.3 669.4,78.3 674,74.6 680.3,81.8 684.6,78.6 711.7,88.6 745,95.4 779.5,85.9 
	792.5,86.9 811,97.4 894,87.9 943,138.4 958,166.4 992,176.9 1086.5,212.9 999,339.4 963,354.9 939.5,395.9 899.5,403.9 846,390.9 
	831,385.4 815,412.4 798.5,421.9 785,443.9 786.5,474.9 741.5,476.4 725,464.9 715,477.4 716,530.4 679,564.4 625,557.4 
	595.4,545.8 580.3,483.4 578.2,482.7 561,497.4 525.5,474.4 477,504.9 461,503.9 443,514.9 424.5,521.9 416.5,547.7 362.5,534.9 "/>
</svg>
