<?xml version="1.0" encoding="utf-8"?>
<!-- Generator: Adobe Illustrator 18.1.0, SVG Export Plug-In . SVG Version: 6.00 Build 0)  -->
<svg version="1.1" id="glowShapes" xmlns="http://www.w3.org/2000/svg" xmlns:xlink="http://www.w3.org/1999/xlink" x="0px" y="0px"
	 width="7680px" height="1080px" viewBox="0 0 7680 1080" enable-background="new 0 0 7680 1080" xml:space="preserve">
<path fill="#CECCCC" stroke="#FFFFFF" stroke-miterlimit="10" d="M1715.3,373.7l10.5,5c0,0,9.9,3.1,15.3-4s3.5-10.1-0.5-15.5
	s-14-12.5-14-12.5s1.3-2,6.3-11.5s2.6-13.9,1.5-15.5s-4-3.8-4-3.8c-10-6.3-18.5,3.8-18.5,3.8s-4,3.6-5.3,5.8s-1.5,1-1.5,1
	c-2.3-4.1-12-7.3-12-7.3l-6.3-0.8c0,0-3.5-6.5-6-9s-9-4.8-9-4.8l2.5-3.8c0,0,3.5-6.9,4-11s-1.4-11.1-8.3-14s-10.3,1.6-12.8,3.3
	s-12,14-12,14l-8.3-5.5c0,0-8-4.6-14.5-4.3s-10,10.8-10,10.8c-0.9,10.4,13.3,20,13.3,20s-3.6,2.9-5.8,6.3s-2.8,11.8-2.8,11.8
	s-3,1.9-6.8,4.3s-5.6,7.1-6,8s-1,3.3-1,3.3l-2-1.8l-6.8-3.3c0,0-6.3-2-9.3-2s-7,2.4-9.3,5.3c-2.3,2.9-2.5,9-2.5,9l2.3,3.5
	c3.8,6.6,15.5,15.3,15.5,15.3c-6.9,8.9-8.8,18-8.8,18s-2.4,7.8,3.5,11.8s9,4.3,14,2s12.5-12,12.5-12c2.8,4.3,11.6,8.3,14.5,8.3
	s4,0.8,4,0.8c7,11.5,15,13.3,15,13.3s-1,1.5-5,8.8s0,14.8,0,14.8s6.3,8,12,6.5s15.8-13.8,15.8-13.8l3.5-5c0,0,8.3,6.5,17.5,9
	s11.8-2.3,11.8-2.3s5.3-7.1,3.3-13s-13.3-14.5-13.3-14.5s3.5-2.6,6.3-7s2.5-11.3,2.5-11.3s3.8-2,7.8-5s4.9-7.1,5.3-8.8
	S1715.3,373.7,1715.3,373.7z M1626.6,375.6c-4.2,2.5-6.3,3.4-6.3,3.4s-2.6,0.8-5-1.4c0,0-0.6,10.8-10.4,12c0,0-8.2-1-8.8-10.5
	c0,0,0.1-2.6,1.5-6.9c0,0-5.7-5.1-4.5-11.1s3.9-7.3,5.5-7.8c1.6-0.4,5.2-0.1,7,1s6.1,2.8,6.8,7c0,0,0.8-3.4,2.6-3.4
	c1.8,0,5.8-0.3,8.9,0.9s6.6,3.1,7,6.8C1631.3,369.3,1630.8,373.1,1626.6,375.6z M1630.9,310.1c-3.8-6.1,2-10.2,5.4-12s10.6,1,10.6,1
	c2.5-3.3,6.8-4.6,6.8-4.6c10.7-2.1,12.3,6.5,12.3,6.5c0.6,9.4-8,12.5-8,12.5c2.9,0.6,3,2.9,3.1,4s0.2,3.4,0,5.3
	c-0.2,1.8-1.1,4.4-2,6.1c-0.9,1.7-5.3,3.5-5.3,3.5c-10.9,1.1-13.3-11.3-13.9-12.6s1.9-2.8,2.1-3.3
	C1642,316.5,1634.6,316.1,1630.9,310.1z M1638.8,364.6l0.3-0.9l8.4-1.6l1.5-8.6l6.9-4.8l-1-7.9l0.4-1.3l1.1,2.3l1,6.8l8,1.3l4.9,6.9
	l9.1-0.8l0.1,0.6c0,0-8.9,1.2-8.9,1.5s-1.4,8.9-1.4,8.9l-6.6,4.3l0.9,9.1l-0.8-0.1l-1.9-8.6l-8.3-1l-4.3-7.5L1638.8,364.6z
	 M1687.4,417.6c-1,1.8-4.8,4.1-7.8,5s-8.6-1.5-8.6-1.5c-2.4,4.4-7.9,5-7.9,5c-11.4-0.6-11-6.6-11-6.6c-0.9-9.4,8.8-12.6,8.8-12.6
	c-4.8-1-3.9-4.8-3.9-4.8c-0.1-13.2,7.3-13.9,7.3-13.9c6.9-1.3,10.8,5.1,12.6,9.9c1.9,4.8-2.3,5.9-2.3,5.9c4.7-1.1,10,2.4,12.3,5.3
	C1689.1,412,1688.4,415.8,1687.4,417.6z M1705.6,360.2c-1.1,3.9-9.6,1.6-9.6,1.6c-8.1-0.4-9-7.3-9-7.3c-1.1-8.3,5.6-10,9.4-12.3
	s6.5,2,6.5,2c-0.6-1.6,0.4-4.9,0.4-4.9s1.4-5.3,6.8-8.1s9.9,3.8,11.4,6.9s-1.1,9.8-1.1,9.8c3.3,3.1,4.5,7.3,4.5,7.3s1.6,9.5-5.8,12
	S1705.6,360.2,1705.6,360.2z"/>
<g>
	<path fill="#010202" d="M1625.6,431.8c-1.9-5.1-5.6-6-5.6-6c-4.6-5.3-7.8-3.5-7.8-3.5c-5.6,3.8-2.1,12.8-2.1,12.8
		c-0.8-1.6-3.5-3.1-3.5-3.1s-1.6-0.9-2.5-1.3c-0.9-0.4-4.9-0.1-4.9-0.1s4.8-2.6,6-3.9c1.3-1.3,3.2-4.9,2.4-7.4
		c-0.8-2.5-5.3-2.5-5.3-2.5l-2.9-0.3c-0.6-1.1-3.3-2-8.1-0.1s-5.1,5.5-5.1,5.5s-2.3,2-3.3,3.3s-0.6,4-0.6,4c1,2.3,6.8,3.8,8.3,3.6
		c1.4-0.2,4.8-0.8,4.8-0.8c-0.8,0.6-3.2,3.8-3.8,4.6c-0.6,0.8-1.3,5-1.3,5s-1.6-3.3-2-3.9c-0.4-0.6-1.8-1.5-4.3-3s-3.6-0.9-5.3,0.6
		c-1.6,1.6-1.8,5.3-1.8,6.3s-0.9,1-0.9,1l-0.6,1.9c0,0,18.9,1,33.1,1.4l0.9-1.3c0,0,1.4-2.1,1.6-2.8c0.3-0.7,0.1-2.9,0.1-2.9
		s2.1,4.2,2.8,5c0.2,0.3,0.6,1.1,0.9,2c5.4,0.1,9.1-0.1,9.2-0.5c0.3-1.6,0.6-6.1,0.6-6.1S1627.6,437,1625.6,431.8z"/>
</g>
<path fill="#010202" d="M1575.8,327.6c3.3-0.9,6.8-3.1,6.8-3.1l1.5-1.5l0.1-1.8c0,0,5-2,5.6-3.9s0.6-5.6-0.4-7s-1.8-3.1-1.8-3.1
	s1.9,0.3,4.5-1s4.1-3.4,4.1-3.4s0.6-3.5,0.5-4.5s-0.9-2.8-0.9-2.8s0.8-0.7,1-1.5c0.3-0.8,0.2-3.4-0.1-5.3c-0.3-1.8-2.6-5.7-2.9-6
	s-2.4-1.9-3.3-1.6c0,0-2.5-4.9-5.1-5.8s-5.5,0.4-5.5,0.4l-3.4,2.3c0,0-0.6-3.8-1.3-5.3c-0.7-1.4-2.9-3.4-2.9-3.4s-2.8-1.1-5.1-0.6
	c-2.4,0.4-2.4,0.4-2.4,0.4l-1.1-0.6c0,0-1.5-1.4-7.5,0.3c0,0-4.6,3-5,3.8s-0.9,1.4-0.6,1.9c0,0-2.6,1.1-3,1.6s-3.6,2.7-3.3,5.4
	s1.4,5.5,2.8,6.9c0,0-0.3,0.6-1.4,0.8s-5-0.1-7.3,4.9c0,0-1.2,3.4,0,6.3l0.1,0.6c0,0-2.4,0.4-0.3,7.5c0,0,2.2,7.1,5.5,6.3
	c0,0,3.3,5.4,4.5,5.8c1.2,0.4,5.3,0,5.3,0s3.2-1.6,3.8-2c0.6-0.4,0.9-0.7,1,0.3c0.1,0.9,0.9,4.6,1.9,5.9s3.1,2.6,3.1,2.6l4.4-0.1
	l2.1-0.6C1570,326.5,1572.4,328.5,1575.8,327.6z"/>
<path fill="#808081" d="M1863.8,180.5c2.9-3.3,1.8-3.3,1.8-3.3l9.5-2.3c0,0,3.9-1.1,7.3-4.8s4.1-5.5,4.5-7.8c0,0,11.5,3.9,19.3,4.8
	s21.3,2.6,29.8-18.3c0,0,3.1-15.4-7.5-25c0,0-8.5-5.3-17.8-7.5s-11.3-2-12.5-1.8c0,0,1.1-4,0.5-6.5s-0.4-4.3-3.3-8.3s-9.3-8-9.3-8
	s-0.8-10.4-4.5-14s-6.5-6.1-10.3-6.3c0,0,6.6-13.5,5.8-27.5s-12-18.9-19.5-21.5l-7.5-0.8c0,0-15.4,0.8-20.5,13.8s-5.6,17.8-5.6,17.8
	l-0.5,7c0,0-8.4-2-14.5,3s-7.8,9.3-7.8,9.3s-9.8-0.3-14.3,4s-5.6,9.3-6.3,10.3c-0.7,1-2-0.8-2-0.8s-3.3-2.5-18.3-4.3
	s-24.8,5.8-28.3,19s5.4,25.5,13.8,28.5s12.5,3.8,12.5,3.8s4.9,1.5,6.3,1.5s4.8,0,4.8,0s-0.8,6-0.5,6.8s2.4,7.5,4,9s8,6.8,8,6.8
	s1.9,11.9,4,13.8c2.1,1.9,5.9,5.9,10.5,6.3c0,0-5,15.4-5,23.8s3,20.8,19.3,25.8c0,0,19,3.4,27-11l5.3-14.3l1.8-5.8v-7
	c0,0,5.6,1.6,9,0.3S1860.9,183.7,1863.8,180.5z M1851.3,143.5c-2.3,1.1-3.5,0.4-4.3-0.3s-3-3.8-3-3.8l-1.5-0.3l-0.5,1.5
	c0,0,1,1.9,2,4.3s-1,3.8-1,3.8s-5.6,5.1-9.8,8c-1,0.7-1.8,1.2-2.5,1.6c1.4,0.8,2.9,1.9,4,2.9c2.9,2.9,8,8.8,8,8.8s2.6,5.9,2.5,8.3
	c-0.1,2.4-2.1,3.9-5.3,5.5s-8.5,3.8-8.5,3.8s-5.3-0.6-5.8-1.8s-1-2-1-2s-1.1,2.3-3.5,2s-4.8-1-4.8-1l-1.5-3.5c0,0-1.9,3.1-5,1.5
	s-10-9.8-10-9.8s-2.4-5.6,2.3-8.8c4.7-3.2,14-7.8,14-7.8s2.2-0.5,4.8-0.7c-0.8-1.2-1.5-2.7-2-3.8c-1.3-2.6-4.3-12.3-4.3-13
	s4.5-3.8,4.5-3.8v-2.5c0,0-3,0.8-4,1.8s-3.3,0.8-3.3,0.8s-6.8-6.5-10.3-10.3c-0.8-0.8-1.3-1.6-1.7-2.4l-3.6,4.4c0,0-8.6,7.1-15,8.8
	s-6.4-2.6-8.5-7.5s-2.1-8-2-9.8s3-3.3,3-3.3c-1.1-0.6-1.3-2.3-1.3-2.3s0.4-3.9,0.8-5.3s2.3-2.3,2.3-2.3s0,0-1.3-1.5s1.5-5,1.5-5
	s5-4.8,10-8.3s10.5,5.8,10.5,5.8s5.9,9.1,5.8,11.3c-0.1,1.3-0.2,3.3-0.2,4.7c0.5-0.7,0.9-1.2,0.9-1.2s10.4-3.8,12.8-5.3
	s3.8-0.3,3.8-0.3l4,4.3l2.3,1.3c0,0,0-1.6-1.3-3.8s-1.4-5-1.4-5s0,0,6.4-6c3-2.8,5.4-4.4,7.3-5.2c-6.6-3.1-9-7.9-10.3-10
	c-1.6-2.8-3-8.4-4-10.8s2-3.8,2-3.8l8.3-3.8c0,0,3.9-1.4,6.5-1.5s3,5.3,3,5.3c0.4-1.9,3.3-3.8,3.3-3.8s4.6,1.3,5.8,1.8s1,3,1,3
	s0,0,1-1.3s4.5-0.3,4.5-0.3s5.1,3.3,9,9s-1.4,10.1-3.8,11.8s-15.3,6.8-15.3,6.8l-1.4-0.1c0.4,0.4,0.7,0.9,1.2,1.4
	c2.8,3.5,5.5,15,5.5,15l-1.5,1.8l-4.3,3.5c0,0,1.4,0.5,3.3-0.3s6-1.3,6-1.3s2.6,3,7.5,8.8c1.9,2.2,2.9,3.8,3.5,5
	c0.6-1.6,1.3-3.2,1.5-3.5c0.6-0.8,6.8-5.6,11.3-9s9.8-1.3,9.8-1.3s6.5,9.5,6.5,15c0,5.1-3.7,4.6-4.2,4.5c2.1,0.4,2.8,1.2,1.9,5.7
	c-0.9,4.6-3.5,4.8-3.5,4.8c2.9,1.6,1.3,6.6,0.5,6.8s-7,7.5-10.3,9s-8.3-4.4-8.8-5s-5.4-9.8-6.8-12.8c-0.5-1.1-0.6-2.6-0.5-4.2
	c-0.3,0.3-0.5,0.5-0.5,0.5S1853.5,142.3,1851.3,143.5z"/>
<path fill="#808081" d="M2079.8,272.9c-25.6,0.8-32,18.7-32,18.7c-21.7,5.2-26,26.2-26,26.2c12.1,21.8,32,18.8,32,18.8
	c13.8,16.4,35.8,9.2,35.8,9.2c12.4-21,0.2-36.8,0.2-36.8C2097.2,287.7,2079.8,272.9,2079.8,272.9z"/>
<path fill="#808081" d="M2188.5,434.2c-4.2-0.4-10.2,6-10.2,6s-1.6,0-2.5-0.3s-2,0.2-2,0.2s-0.3-0.7-0.8-1.5
	c-0.6-0.8-2.7-1.2-2.7-1.2s6.3-3,9.8-11.3c3.6-8.3-2-15-2-15c-4.7-5.4-9.2-3.8-12.2-2.7c-3,1.2-8,4.5-8,4.5
	c0.8-1.4,3.7-11.7,3.7-11.7s0-5.7-4.3-8.5s-11-1.8-11-1.8c-10.1,2.2-14.8,13.7-14.8,13.7s-0.5-1.4-1.5-2.7s-1.7-1-1.7-1l0.2-1.5
	l-0.5-0.8l-0.3-1.8c0,0,1.1-1.8,1.3-2.2c0.3-0.4,2.2-2.7,2.2-2.7c1.8-4.1,0.3-6.8,0.3-6.8c-7.2-5.8-18.7-1.3-18.7-1.3l-2.2,0.8
	c-13.3,4-15.5,12.8-15.5,12.8c2.6,5.8,10.7,7.2,10.7,7.2s0.5,1.2,1.3,2.8c0.8,1.7,0.8,1.2,0,2.2s-0.3,3.2-0.3,3.2
	c-2.4-1.8-10-2.8-10-2.8s-13.7-0.8-16.7,10.2c-3,10.9,12,16,12,16c-8.5,0.8-13,3.3-13,3.3c-6.6,4.3-2.8,13-2.8,13
	c4.1,11.9,21.2,10.5,21.2,10.5s0,1.1-0.8,2s0.7,2.4-0.2,2.7s-3,2.6-3,2.6s0,0-4.8-0.3s-7.5,3.3-7.5,3.3c-1.3,8.6,9.7,17.5,9.7,17.5
	c8.7,7.3,15.7,9.1,19.3,6.8c3.7-2.3,1.8-8.3,1.3-9.2c-0.4-0.8,0-3.3,0-3.3c1.3-1.6,1.7-3.5,1.7-3.5c0.3,0.8,2.2-0.3,2.2-0.3l2.2-0.8
	c1.6,9.2,3.8,11.7,3.8,11.7c7.7,11.3,17.3,7.3,17.3,7.3c8.7-3.2,6.3-18.7,6.3-18.7l1.8,2c0,0,8.5,16,19.3,5.3s-0.3-24.8-0.3-24.8
	c3.4,0.1,4.2-1.8,4.2-1.8c0.7,1.3,3.5,1.3,3.5,1.3c4.2,9.8,9.2,9.8,9.2,9.8c9.8-5.6,10.5-17.8,10.5-17.8
	C2195.6,445.6,2192.7,434.6,2188.5,434.2z M2147,443.9c0,0-1.8-2.2-2.8-0.2l-0.5,1.2c0,0-0.6,0.3-0.5,0.7s0.5,1.3,0.5,1.3v1.3
	c0,0,0.8,1,2.7,0.3c0,0,2.9,0.2,2,2.8c-0.9,2.7-2.8,5.8-2.8,5.8s-1.5,2.3-6.8,0.5c0,0-2.6-2.2-3.7,1.7c0,0-1.8,5.7-8.2,2.5
	c-6.3-3.2-3.7-5.2-3.7-5.2s1.8-0.3,2.2-0.8c0.4-0.6,0-2,0-2l-1.2-1.2c0,0-0.3-0.5-0.8-0.8c-0.6-0.3-2.3-1.7-2.7,0.2
	c-0.3,1.8-1.1,2.8-1.7,2.8s-1.7,0.3-2.7-0.8l-3.7-5.8c0,0-2.3-2.2,2-5s3.5-2.3,3.5-2.3l-2.8-4.5c0,0-2.8-2.8,3.3-6.3
	c6.2-3.5,5.5-1,5.5-1s-0.4,3,1,3.3s2.3,0,2.3,0l1.7-1.2c0,0,1.3-1.2,0-2.7s0-2.8,0-2.8l1.5-0.7l5.5-0.7c0,0,3.9-0.6,4.2,4.5
	c0.3,5.1,1.5,3.8,1.5,3.8h5c0,0,3-0.8,3.3,6.5C2150.5,446.5,2147,443.9,2147,443.9z"/>
<path fill="#686868" d="M2065.3,413.9c-0.2-0.2-0.2-1.7-0.3-3.2c0-1.5-2.1-7.3-2.5-8s-2-3-2.1-3.2c0-0.2-1.4-3.6-1.8-4.4
	c-0.5-0.8-1.3-1.8-1.7-2.2c-0.4-0.4-1.6-1.7-1.8-2c-0.2-0.3-3-1.8-3.6-1.8s-1.1-0.6-1.1-0.6c2.4-2.5,2.5-2,5.1-5.5s2.4-8.3,2.4-8.3
	c1.4-2.3,1.8-7.5,1.8-7.5l0.2-2.8c0,0,0.1-1.5-0.1-3.7s-0.8-3-0.8-3s0.1-1.3-0.3-2.4c-0.3-1.2-0.8-1.5-2.1-1.8
	c-1.3-0.3-1.9-2.2-1.9-2.2s-1.1-2.2-1.6-2.2s-2.9-0.8-2.9-0.8s-1.5-1.1-2.3-2c-0.8-0.9-2.7-0.6-2.7-0.6s-1-0.2-1.5-0.3
	c-0.5,0-2,0.3-2,0.3h-1.8c0,0-1.8,0.3-2.4,0.3s-3.7,1.4-4.1,1.4s-3.3,1.6-3.3,1.6s-2.9,1.6-4.4,2.3s-2.7,1.7-4.1,2.1
	c-1.4,0.4-2.4,1.8-2.8,2.3c-0.5,0.5-2.6,5.4-2.6,5.4l-0.3-0.6c-0.9-2.1-3.6-3.8-4-4.5s-3.6-1.8-5.5-2.3s-4.3-0.8-4.3-0.8l-2.2-1
	c0,0-2.5,0-3.3-0.5s-6.4-0.3-7.7-0.3c-1.3,0-2.8,0.8-3.5,1s-1.9-0.3-2.3,0.2c-0.4,0.4-2,1.2-3.2,2.2s-1.8,1.6-2.8,2
	s-1.4,1.8-1.5,2.8s-0.7,2.9-1.7,4s0,2,0,2s0,1.4-0.3,2s-0.1,1.8-0.2,2.2s-0.2,1.3,0.5,5s4.5,8.8,4.5,8.8s1.6,4.2,3.3,6.5
	c1.8,2.3,6.7,5.2,6.7,5.2c-2.9,1.6-5.9,6.8-6.3,7.9c-0.5,1.2-1.2,5.7-1.2,5.7s-1,2.9-1.3,3.6c-0.3,0.7-0.8,5-0.8,5l0.3,6.2l0.8,2.7
	c0,0,0.4,2.4,0.4,2.6s3.4,2.4,3.6,2.8c0.2,0.4,1.5,2.5,1.5,2.5s3.2,1.2,3.7,1.6c0.5,0.4,3.1,2.3,3.1,2.3l3.3-0.3h2l4.2-0.3
	c0,0,1.5-0.7,3.9-1.7s5.4-2.9,5.4-2.9s1.6-0.3,3.8-1.3c2.1-1.1,4.3-3.1,5.5-4.5s2.5-4.3,2.5-4.3c2.4,4.1,4.5,4.7,6.7,5.8
	c2.2,1,5.3,1.5,5.8,1.5s2.4,0.8,2.4,0.8s1.8,0.6,2.9,0.8s3.9,0.4,3.9,0.4l3.8,0.1c0,0,1.5,0,2.4,0c1,0,1.9-0.1,1.9-0.1l1.4-0.9
	c2.9-0.1,2.9-0.8,3.6-1.8s2.2-2.2,2.4-2.3c0.2,0,1.6-0.4,2.4-2.7s0.6-1.7,1.9-3.6c1.3-1.9,0.6-3,0.5-3.4s0.8-1.7,0.8-1.7
	S2065.5,414.1,2065.3,413.9z M2023.5,393.6l-2.8,6.5l-3-4.7l-6.6-3l4.7-3.1l2.9-6.3c0,0,0.5,0.2,1,1.1c0.5,0.9,2.9,4.3,2.9,4.3
	l5.3,1.8l0.2,0.7L2023.5,393.6z"/>
<path fill="#4F4E4E" d="M2195.5,284.7c-2.7,0.1-7.8,2.7-7.8,2.7s-8.2-3-9.2-3s-8.3,0.8-8.3,0.8c-1.8-2.3-5.3-6-15.2-6.2
	c-9.8-0.2-17,6.5-17,6.5s-5.9,3.9-10.5,13.2s1.8,17.2,1.8,17.2l-3.7,8.7l1.2,9c-1.6,1-5.4,5.3-6.3,13s2.7,14.3,6.2,18.8
	c3.5,4.6,10.5,9.3,10.5,9.3c11.4,5.8,20.2-0.3,20.2-0.3c2.3,1.1,8.7,3,8.7,3l3,0.2l6.2-0.5c9.5,8.7,19.2,5.3,19.2,5.3
	s8.6-0.1,19-11.8c10.4-11.8,2.8-24.8,2.8-24.8l3-8.8l-0.8-8.7c0,0,4.4-2.6,5.7-8.7s2.3-12.3-6.3-23.5
	C2209.1,284.8,2198.2,284.6,2195.5,284.7z M2183.3,345.4c0,0-1.3,11.3-15.5,18.5c0,0-8.9-7.2-9.5-22.2c0,0-10.3-0.7-18.7-15.2
	c0,0,7.1-9.9,22.2-9.7c0,0,3.8-14.6,15.7-18.7c0,0,10.5,9.3,9.5,22.3c0,0,11.4,1.3,18.3,15C2205.3,335.5,2199.6,344.7,2183.3,345.4z
	"/>
<path fill="#808081" d="M2561.3,330.9l-3-4.2l-2.8-4l-3.3-3.3l-3.8-2.5l-3.3-2.7l3-3.7v-4c0,0,0-2.5,0-3.2s-0.2-1.7-0.2-2.3
	s-1.2-2.5-1-3s-1.5-3.2-1.5-3.2l-2.5-2.2l-2-1l3.2-4.8l3.5-7.8l2-6.2l0.2-4.8l-1.2-4.5l-3.2-4.1l-4.5-2.9l-3.8-1h-3.2h-4.7l-2.4,0.8
	l-2.8,1.2l-1.5,0.8l1.5-4.7l-1-4.8l-2-3.7l-2.5-3.8l-4.2-3l-4.8-1.9h-3.7l-4.2,1.9l-3.3,1.6l-3,2.7l-3.5,2.5l-3.3,4.2l-1.7,2.6
	l-2.1,1.9l-3.9-1.9l-4-1.2h-2.7l-1.7,1.2h-3.3l-3.2,1.3l-1.2,1.7l-2,1.7l-0.8,1.8l-4.3-2.7l-6-3l-5.7-2.3l-6.2-1l-4.8,1.2l-3.7,1.4
	l-1.8,2.9l-1.8,2.3l-1.3,4.3c0,0-1.2,3.5-1.2,4s0.3,4.7,0.3,4.7l3.1,4v2.2l-6.1-0.5l-3.5,1l-6.7,3.2l-3,4l-1.8,5.2l-0.9,5.2l2.4,4.7
	l4.3,5.2l5.3,5.3l6.8,4.7l-3,3.2c0,0,0.7,4.3,0,4.8s-0.3,4.8,0,5.3s1.3,4.5,1.3,4.5v2.3l2.9,1.7l2.7,1.5l-2.7,2.8l-3.5,7.8l-1.1,3.3
	l-1.6,3.8v3.7l0.7,4.2l3,5l2.5,1.9l3.7,2.6l3.2,0.8h4.7l5.8-1.2l2.8-2.3v5.6l0.7,4.5l4.8,7.3l3.3,2.2l4.2,2l4.7,0.8l4.8-1.8l4.5-4.3
	l3.3-3l4.2-4l3.4-3.8l0.8-1.5l3.2,2.8l3.7,0.5h3.8h2.3l2.2-1l3.5-1.7l3-3v-1.6l4.2,2.3l5.8,3l4.7,2.2l6.5,0.8l4.3,0.3
	c0,0,3.3-1.5,3.8-1.5s4.3-3,4.3-3l2.7-5.8l0.8-5.3v-3.9l-1.2-3.8l-2.3-3.3l5.2,0.9l4.8-0.9l4-2.2l5.3-3.8l3-5.7l-0.7-5.2
	L2561.3,330.9z M2540.8,313.5v4l-1.2,4.3l-2,2.2l-1.2,1l-2,2.5l0.7,2.3c0,0,0.7,1.5,0,2s0,2.5,0,2.5l-2.5,2.7l-4.8,0.8
	c0,0,0,0-0.2,0.5s0.2,1.5,0,2s0,3,0,3s-1,0-2,0s-1.7,0.5-2.4,0.7c-0.8,0.2-0.9,1.2-1.1,1.7s1,1.7,1,2.2s0.2,1.7,0,2.2
	s-0.5,2.3-0.8,2.9c-0.3,0.6-2.2,1.4-2.7,1.4s-2.8,0.5-2.8,0.5l-2.3,3.3l-1.2,1v1.3l-2,2.2c0,0-0.8,1.3-1.5,1.8s-3.2,0.8-3.7,0.8
	s-2,0.7-3.2,0.5s-3-1-3-1s-1.2,0.5-1.7,0.8s-3,1-3,1l-2.7-1.7l-1.8,0.3l-0.7,1.7c0,0-0.5,1-1,1s-1.7,2-1.7,2s-2.2-0.2-3.2-0.7
	s-1.3,0.2-1.8,0.5s-1.5,0.2-2.2,0s-3.5-2-5-2.7s0-2.5,0-2.5s-1.5,0.4-2,0s-1.5-1.1-1.5-1.1s-0.8,0.2-1.3,0.3s-2.8,0.3-3.3,0.7
	s-1.8,0-1.8,0s-2-2.3-2.5-3.3s-1.2-2.4-1.2-2.4s-1.7,0.4-2.3,0c-0.7-0.4-2.5-0.2-2.5-0.2s-1.3,0.5-2.3,0s0-1.2,0-1.2s0,0-0.5-0.2
	s-0.7-2.2-0.8-2.7s0-2.7,0-2.7l-1,0.2l-2.5,0.9h-2.2l-2.3-2.3v-3.2v-2.7l-1.5,0.3l-2-2.2l-1.2-0.8l-1.3,0.5c0,0-2-1.5-2.5-2.3
	s-0.8-2.8-1-3.5s-1.8-2.5-2-3.2s-0.3-1.3-0.3-1.3l1-2.5c0,0,2.3-0.7,2-1.2s-0.3-0.8-0.7-1.7c-0.3-0.8-1.3-2-1.3-2l-0.3-2.9
	c0,0,0.8-1.7,1.3-2.2s0.5-0.7,0.5-0.7l-1.7-0.7c0,0-2-0.2-2.5-0.5s-1.2-1.5-1.7-2.1s-1-1.9-1.3-2.7s0.7-1.8,0.7-2.3s0.7-1.3,1.3-2.2
	c0.7-0.8,0-1.2,0-1.7s0.7-1.3,0.8-2c0.1-0.7,2.3-0.3,2.3-0.3s0,0,0.2-1s0-1.2,0-1.2s2-0.8,2.1-1.3c0.2-0.5,0-1.7,0-1.7
	s-1.2-2-1.8-2.5c-0.7-0.5,0-1.8,0-2.3s0-1.5,0-1.5l3.3-1.3l2.1-0.5c0,0,0.5-2,0.1-2.5s0.2-1.5,0.1-2.2s0.2-1.7,0-2.2s1-0.8,1-0.8
	l2.2-0.2l3.7-2l-0.3-1.5v-1.8v-1.8l1.7-2.3l2.8-0.2l3.5-0.8l1.5-1.3l0.8-1.3l-0.3-1.3l0.2-1.5l1.7-1.5l1.5-1.9l3.7-2.3l3.8,0.3
	l3,0.8l3-1.7l1.3,0.2l3.5,0.5l1.7,0.7l0.3-1.5l1.7-1.9l1.5-1.1h2h2h2.5l3.2,1.1l1.3,2.2l1.3,1.5l1.7,1.1h1.5h3.5h3l1.7,3.3l1.7,1.5
	h2.7h2.2h1.5c0,0,0.5,1.3,0.7,1.8s1,1.8,1,1.8l2,3.2h2.5l3,0.7l1.5,3.5v4.2h1.1l1.4,1.8h2.5h1.7l2,2c0,0,1.7,3,1.7,3.5s1,3,1.2,3.5
	s-0.2,1.7-0.3,2.2c-0.2,0.5-1.7,2-1.7,2s0.2,1,0.5,1.5s0.3,0.8,0.3,1.7s1.2,1.5,1.2,1.5l-0.2,2l-1,3h2.3l2.5,1.7v3.2L2540.8,313.5
	L2540.8,313.5z"/>
<path fill="#808081" d="M2589.8,134.4c-2.9-9.7-7-10.7-7-10.7l-1.3,0.2c0,0-2.8-9.9-8.2-10.8c-5.4-0.9-8.9-0.9-12,2l-1.5,1.5
	c0,0-1.6-0.6-2-0.8c-0.5-0.3,1.8-7.9-2.8-12.5s-10.5-2.8-10.5-2.8l-3.5,0.8c0,0-0.7-5.3-14-1.7c0,0-9.3,2-9.5,7.7
	c0,0-8.2,2.5-10.5,7.7s1.3,11.7,1.3,11.7l2,2.3c0,0,0.4,1.6-0.3,1.7c-0.8,0.1-5.1-1.4-9.3,0.8c-4.2,2.2-5,4.5-5,4.5s-3.2,5.1-1,11.5
	l0.3,0.8c0,0-5.2,0.6-2,12.2l1.5,4.5c0,0,2.1,7,7,6.7c0,0,2,6.3,4.3,8s4.5,3.2,8.2,2.8c3.7-0.3,5.5-0.5,8.3-3.5c0,0,2-0.1,2,1.2
	s-0.8,3.7,0.3,6.3c1.2,2.7,3.8,6.3,3.8,6.3l4.3,1.7l4.5,0.7c0,0,3.5-0.9,4.2-0.8c0.7,0.1,1,4.8,11.3,2l8.8-2.7c0,0,3.7-2.5,3.8-5.7
	c0,0,7.1-3.1,9.3-6.5c2.3-3.4,1.3-7.2,1.3-7.7s-1.5-5-1.5-5s-0.9-1.5-2.5-2.3l1.3-1.7c0,0,5,0.3,5.8,0s6.3-3.7,7-4s1.5-2.8,1.8-3.8
	s1.1-6.7,0.2-9.5C2588.3,147.4,2592.8,144,2589.8,134.4z M2517.8,122c0,0,0.8-2.9,0.7-3.3s2.4-3.5,2.4-3.5l1.5-1.7
	c0,0,0.8-2.2,2.6-1.5c0,0,2.8,5.9,1.5,10.1c-1.3,4.3-2.4,8.6-4.6,8.2C2519.6,129.9,2516.3,125.8,2517.8,122z M2502.7,151.6
	c-1.5-1.2-0.1-3-0.1-3l0.7-2.1c0,0,1.4-3.7,1.8-3.9s2.4-2.3,2.4-2.3c2.5-3.2,7.7-2.5,9.2-0.7c1.5,1.7-1.7,4.8-4.7,8.1
	C2509.1,150.9,2502.7,151.6,2502.7,151.6z M2516.4,171.5c0,0-2.9-0.6-3.3-0.5s-3.7-2.2-3.7-2.2l-1.8-1.3c0,0-2.2-0.7-1.7-2.5
	c0,0,5.7-3.2,10-2.1c4.3,1,8.7,1.8,8.5,4C2524.2,169.1,2520.3,172.7,2516.4,171.5z M2518.8,159c0,0-6.3,1.2-8-3.2
	c0,0-2.4-3.8,5.3-6.3c0,0,5.1-1.4,11.2,2C2527.3,151.5,2525.6,156.5,2518.8,159z M2541.1,108l2.1,0.9c0,0,3.6,1.6,3.7,2
	s2.1,2.6,2.1,2.6c3,2.8,1.9,7.9,0.1,9.3c-1.8,1.4-4.7-2-7.8-5.2s-3.3-9.7-3.3-9.7C2539.4,106.4,2541.1,108,2541.1,108z
	 M2532.7,116.7c3.1-0.3,6,2.8,6.7,7.2c0.7,4.3-2,9.8-2,9.8s-5.7-5.2-6.7-7.2S2529.6,117,2532.7,116.7z M2542.3,186.2l-2.1-0.7
	c0,0-3.7-1.4-3.9-1.8c-0.2-0.4-2.3-2.4-2.3-2.4c-3.2-2.5-2.5-7.7-0.8-9.2s4.8,1.7,8.2,4.7c3.3,3,4,9.4,4,9.4
	C2544.1,187.6,2542.3,186.2,2542.3,186.2z M2549.5,178.2c-1.6,0.4-2.9-0.1-5.5-3.8s1-12.8,1-12.8c3.3,0.3,7.3,6.8,7.3,6.8
	C2553.8,176.3,2551.1,177.8,2549.5,178.2z M2558.2,127.6c0.4-2.2,4.5-5.5,8.3-4.1c0,0,2.9,0.8,3.3,0.7s3.5,2.4,3.5,2.4l1.7,1.5
	c0,0,2.2,0.8,1.5,2.6c0,0-5.9,2.8-10.1,1.4C2562.1,130.9,2557.8,129.9,2558.2,127.6z M2563.5,136.4c4.6-1.3,8.2,1.3,8.5,2
	c0,0,1.7,3.8-6,7.3c0,0-6.4,1.2-10.5-2.3C2555.5,143.4,2558.9,137.7,2563.5,136.4z M2565.2,172.4c0,0-0.6,2.9-0.5,3.3
	c0.1,0.4-2.2,3.7-2.2,3.7l-1.3,1.8c0,0-0.7,2.3-2.5,1.7c0,0-3.2-5.7-2.2-10s1.8-8.8,4-8.5S2566.3,168.5,2565.2,172.4z M2580.4,147
	l-0.9,2.1c0,0-1.6,3.6-2,3.7c-0.4,0.1-2.6,2.1-2.6,2.1c-2.8,3-7.9,1.9-9.3,0.1c-1.4-1.8,2-4.7,5.2-7.8s9.7-3.3,9.7-3.3
	C2582,145.2,2580.4,147,2580.4,147z"/>
<path fill="#4F4E4E" d="M2346.7,35c-0.2-2-0.3-4.3-0.3-4.3l-1-3.2l-0.8-4.7c0,0-1.8-2-2.2-2.7c-0.3-0.7-0.5-3.3-0.5-3.3
	s-1.7-1.9-2.3-1.8c-0.7,0.1-4.7-3.7-4.7-3.7s-1.4-1.4-2.2-1.3c-0.8,0.1-3.5,0.7-3.5,0.7l-3.7-1.3V5.5c0,0,2.5-2.3,2.7-2.8
	c0.2-0.6,0.3-2.9,0.3-5s-76.7,2.5-76.7,2.5l-2.5,2.7c0,0-1.6,0.3-2.5,2c-0.9,1.8-1.5,3-1.5,3l-2,2.8c0,0-1.5,2.7-1.2,4.3
	c0.3,1.7,8.2,27.3,8.2,27.3s2.5,0.9,2.7,1.3c0.2,0.4,0.9,1.5,3,1.7s5-0.2,5-0.2l2,0.7c0,0,0.3,2.6,0,3.2c-0.3,0.6-3.1,2.8-3,3.7
	s0.5,7.7,0.5,7.7l0.8,1.2c0,0-0.4,2.1,0.5,2.5s2,1.2,2.3,1.7s1.8,4,1.8,4l2.8,2.5c0,0,3,2.7,5.3,4.2s2.9,2,4.8,2.5
	c1.1,0.3,3.2,0.8,5.3,1.1c1.6,0.3,3.1,0.4,4.2,0.4c2.2-0.1,7.2-1.3,8.7-1.7c0.3-0.1,0.5-0.1,0.5-0.1l3-2c0,0,1.2-1.4,1.7-1.3
	s2.2,0.3,2.8,0c0.7-0.3,2-2.2,2-2.2s0.5-0.7,1.2-1.2s3.2-4.7,3.5-5.3c0.3-0.7-0.8-3.3-0.7-4.2c0.2-0.8,1.5-3.7,1.5-3.7
	s3.1,0.2,3.5,0.3c0.4,0.2,3.5,2.8,3.5,2.8l7.3-0.5c0,0,0.7-0.7,1.2-0.8c0.5-0.2,2.2-0.5,2.2-0.5l1.5-2.3c0,0,3.8-1.9,4.2-1.8
	c0.4,0.1,2.7-2.8,2.7-2.8s2-1.7,2.5-2.3s1-2.5,1-2.5l1-1.3l2-2.7l1-2.8C2346.2,41.4,2346.8,37,2346.7,35z"/>
<path fill="#808081" d="M2451,230.7c1.3,2.8,2.8,5.2,2.8,5.2l1.2,2c0,0,1,0.3,1.5,0.5s4.3,3.8,7.5,4.5c3.3,0.7,7.9,1.2,11.7,1
	c3.8-0.2,9.5-2.3,10.8-3s5-3.2,5-3.2l2.7-3.5l1.7-1l0.2-1.7l1-1.2l0.8-4.7l4.7-2c0,0,0.7-0.8,1.2-1s1.2-0.8,1.2-0.8l0.7-1.7l2.2-2.5
	l1.2-2.5l1.3-2.3l0.3-3.3l1.3-3.2l-1.2-9.2l-1.5-4.8c0,0-0.6-2.2-1.3-3.2c-0.7-1-1.8-1.8-1.8-1.8s-0.7-1.6-1.3-2.7
	c-0.7-1.1-3.3-1.8-3.3-1.8l-0.7-1.7l-0.8-0.3l-2.3-1l-5-1.3l-1.7-3.7l-0.7-1l-1.3-2.2l-1.3-0.3l-2.7-2.2l-1.8-1.2l-2-0.8l-3-1
	l-5-0.8l-5,0.3l-4.2,0.8c0,0-3.6,1.1-4.3,1.5c-0.8,0.4-3,0.8-3,0.8s-2.2,1.8-3.7,3s-2.7,3.2-2.7,3.2l-1.8,1l-0.7,2l-0.8,1.2
	c0,0-0.7,4.3-1.2,4.7s-4.5,1.8-4.5,1.8l-1.3,1.4c0,0,0,0-0.7,0.3s-0.7,2-0.7,2l-2.8,3.2l-1,3c0,0-1,2.5-1.5,4.7s-0.5,6.8-0.5,6.8
	s0.8,6.1,0.8,6.8s2,4.7,2,4.7l1.3,3l2.2,2.7l2.8,2.3c0,0,0.9,1.2,1.3,2s0.8,0.5,1.7,0.5c0.9,0,0.8,0.8,0.8,0.8L2451,230.7z"/>
</svg>
